<svg xmlns="http://www.w3.org/2000/svg" viewBox="0 0 302.98 496.48"><defs><style>.cls-1{isolation:isolate;}.cls-12,.cls-2{fill:#b16759;}.cls-3{fill:#f0e1d4;}.cls-4{opacity:0.1;}.cls-5{fill:#606060;}.cls-6{fill:#3f383b;}.cls-7{fill:#77679a;}.cls-8{fill:#e9d3c9;}.cls-9{fill:#402b3e;}.cls-10{opacity:0.2;}.cls-10,.cls-12{mix-blend-mode:multiply;}.cls-11{fill:#8b404f;}.cls-12{opacity:0.21;}.cls-13{fill:#d76a7e;}.cls-14{fill:#d6beab;}.cls-15{fill:#e3cfbf;}.cls-16{opacity:0.6;}.cls-17{fill:#625489;}</style></defs><title>12176833_4938080</title><g class="cls-1"><g id="OBJECTS"><path class="cls-2" d="M113.86,130.45s-17.41-19.27-20.8-22.14S78.93,93,70.92,85.6s-8.55-9.58-9.6-14a80.89,80.89,0,0,0-3.41-10.72,26.35,26.35,0,0,1-1.51-7.33c.13-.53-3.31-.7-3.18,2.1s1.09,4.67.84,5.58-1.16,2.32-1.66,2.43-5.32-.87-7.43-2.77-7.63-5.84-8.57-5.7S34.24,56.33,35,57s5,3.87,6.18,5.26A11,11,0,0,1,43,64.72c0,.23-.34.15-.55.26a15.16,15.16,0,0,1-4.37-2.38,43.5,43.5,0,0,0-4.83-2.83c-.59-.38-3.15-1.84-3.75-1.63s-1.32,1.12-.8,1.88,3.36,2.58,4.73,3.57,6.25,4.15,6.25,4.15l.57.56-.23.62s-5.22-2.08-6.47-2.69-3.21-1.33-3.84-1.6-1.79-1-2.39,0-.46,1.58,1.64,2.63,3.82,2.06,4.86,2.61A40.53,40.53,0,0,0,38.15,72c.93.28,1.7.44,1.7.64s-.18.61-.32.66a5.79,5.79,0,0,1-2.27,0c-1.3-.18-5-.63-5-.63s-2.4-.69-3.22-.41a1.17,1.17,0,0,0-.69,1.61c.23.4,2.25.92,3.64,1.26s4.06.71,4.53.82,2.78.63,3.85,1,6.82,2.66,8.8,3.18,5,2.24,5.74,3.19,9.27,14.26,11.78,17.31S79,119.36,81.79,123.31,99.52,144,101.56,147.14s5.59,1,5.59,1Z"/><path class="cls-3" d="M134.14,137.19s-4.07-2.76-5.82-2.6-5.6-2.57-8.65-4.22c-4.2-2.26-6.64-7.34-7.2-7.31S96.78,133.81,95,145.84l2.16,3.71c.85,1.44,2.71.27,4.27,3.36s7.84,8.07,9.81,10.51c4.73,5.87,2.73,19.34,2.73,19.34l4.15-15.56s8.9-10.6,9.34-10.27,6.3-3.48,6.3-3.48A32.88,32.88,0,0,1,134.14,137.19Z"/><path class="cls-2" d="M181.59,130.45s17.41-19.27,20.8-22.14S216.52,93,224.53,85.6s8.55-9.58,9.6-14a79.2,79.2,0,0,1,3.42-10.72,26.62,26.62,0,0,0,1.5-7.33c-.13-.53,3.31-.7,3.18,2.1s-1.09,4.67-.83,5.58,1.15,2.32,1.65,2.43,5.32-.87,7.43-2.77,7.63-5.84,8.57-5.7,2.16,1.11,1.45,1.82-5,3.87-6.18,5.26a11,11,0,0,0-1.87,2.42c0,.23.34.15.55.26a15.16,15.16,0,0,0,4.37-2.38,43.5,43.5,0,0,1,4.83-2.83c.6-.38,3.15-1.84,3.75-1.63s1.32,1.12.8,1.88-3.36,2.58-4.73,3.57-6.25,4.15-6.25,4.15l-.57.56.23.62s5.22-2.08,6.47-2.69,3.21-1.33,3.85-1.6,1.78-1,2.38,0,.46,1.58-1.64,2.63-3.81,2.06-4.85,2.61A39.73,39.73,0,0,1,257.3,72c-.93.28-1.7.44-1.7.64s.18.61.32.66a5.79,5.79,0,0,0,2.27,0c1.3-.18,5-.63,5-.63s2.4-.69,3.23-.41a1.17,1.17,0,0,1,.68,1.61c-.23.4-2.24.92-3.63,1.26s-4.07.71-4.54.82-2.78.63-3.84,1-6.83,2.66-8.81,3.18-5.05,2.24-5.73,3.19-9.28,14.26-11.79,17.31-12.27,18.69-15.06,22.64S195.93,144,193.89,147.14s-5.59,1-5.59,1Z"/><path class="cls-3" d="M161.31,137.19s4.07-2.76,5.82-2.6,5.61-2.57,8.65-4.22c4.2-2.26,6.64-7.34,7.2-7.31s15.69,10.75,17.52,22.78l-2.16,3.71c-.85,1.44-2.71.27-4.27,3.36s-8.44,7.69-9.81,10.51c-2.32,4.77-3.39,19.53-3.39,19.53l-3.49-15.75s-8.9-10.6-9.34-10.27-6.3-3.48-6.3-3.48A32.88,32.88,0,0,0,161.31,137.19Z"/><g class="cls-4"><ellipse class="cls-5" cx="149.43" cy="443.82" rx="70.44" ry="7.43"/></g><path class="cls-6" d="M103.42,441.1l-2,1.72a6.4,6.4,0,0,0-.66,4c.4,2.23.93,3.64,4.7,4.34a29.67,29.67,0,0,0,11.4,0c3-.77,4.83-1.66,5.49-3.39s-.2-4.85.93-6.32,1.52-.51,2.78-1.47a4.25,4.25,0,0,0,2-3c.05-1,.5-2.08-.25-2.57s-3-.26-3-.26Z"/><polygon class="cls-2" points="113.26 405.22 115.19 431.25 125.74 431.25 126.58 404 113.26 405.22"/><path class="cls-7" d="M113.69,234.83a80.22,80.22,0,0,0-5.07,21.09,170,170,0,0,0,0,29.42c.79,10.64,2,28.28,2.22,37.19s.23,11,.13,12.72.26,4.06,0,4.66a4.77,4.77,0,0,0-.33,3.29c.33,2.11-.89,8.05-1,9.3s-1.9,14.31-1.67,24,.52,18.5,0,22.43-.22,9.27,0,9.46,3.34,2.49,9.17,2.17,12.79-2.17,13-2.56.46-14.06.46-14.06.46-28.87,1.78-40.63,4.51-21.22,5.7-28.5,5.17-28.75,6.49-36,2.12-18.62,3.31-19.14.44-14.85.42-18.05.78-14.82.78-14.82l-34.18-1.92Z"/><path class="cls-8" d="M111.83,425.82s-1-3.57.27-3.89a15.35,15.35,0,0,1,8.14,0c3.38,1.08,4.38,2.3,3.91,4.4s-3,2.05-3,2.05Z"/><path class="cls-8" d="M112.49,424.87a21.84,21.84,0,0,0-5.1,6.58c-2.45,4.53-6.09,9.33-6,11.37s0,3.51,5.53,4.09,9.31,1,11.3-.26,3.51-1.91,3.9-3.64a10.09,10.09,0,0,1,3-4.79c1.2-1,2.59-2.88,2.65-3.77s-.13-4.35,0-6.58-.79-4-1.32-3.45-.53,3.19-1.72,3.58-2-2.24-2-2.24Z"/><path class="cls-6" d="M111.46,430.46s5.65-.48,9.48,1.63l-.5,2.05s-7.17-2.54-10.53-1.87C109.91,432.27,110.16,430.5,111.46,430.46Z"/><path class="cls-6" d="M108.88,433.65s5.65-.48,9.48,1.63l-.5,2.05s-7.17-2.54-10.53-1.86C107.33,435.47,107.57,433.7,108.88,433.65Z"/><path class="cls-6" d="M106.62,436.72s5.66-.48,9.48,1.63l-.49,2s-7.17-2.54-10.54-1.87C105.07,438.53,105.32,436.76,106.62,436.72Z"/><path class="cls-6" d="M192,441.1l2,1.72a6.4,6.4,0,0,1,.66,4c-.4,2.23-.92,3.64-4.7,4.34a29.61,29.61,0,0,1-11.39,0c-3-.77-4.84-1.66-5.5-3.39s.2-4.85-.93-6.32-1.52-.51-2.78-1.47a4.25,4.25,0,0,1-2-3c0-1-.5-2.08.25-2.57s3-.26,3-.26Z"/><polygon class="cls-2" points="182.19 405.22 180.26 431.25 169.71 431.25 168.87 404 182.19 405.22"/><path class="cls-7" d="M181.77,234.83a80.43,80.43,0,0,1,5.06,21.09,170,170,0,0,1,0,29.42c-.79,10.64-2.05,28.28-2.21,37.19s-.24,11-.14,12.72-.26,4.06,0,4.66a4.77,4.77,0,0,1,.33,3.29c-.33,2.11.89,8.05,1,9.3s1.89,14.31,1.66,24-.52,18.5,0,22.43.22,9.27,0,9.46-3.34,2.49-9.17,2.17-12.38-2.3-12.58-2.68-.47-14.06-.47-14.06-.86-28.75-2.18-40.51-4.51-21.22-5.7-28.5-5.17-28.75-6.49-36-1.84-18.62-3-19.14-.7-14.85-.69-18.05-.78-14.82-.78-14.82l34.18-1.92Z"/><path class="cls-8" d="M183.62,425.82s1-3.57-.26-3.89a15.39,15.39,0,0,0-8.15,0c-3.38,1.08-4.37,2.3-3.91,4.4s3,2.05,3,2.05Z"/><path class="cls-8" d="M183,424.87a21.84,21.84,0,0,1,5.1,6.58c2.45,4.53,6.09,9.33,6,11.37s0,3.51-5.53,4.09-9.31,1-11.29-.26-3.52-1.91-3.91-3.64a10.09,10.09,0,0,0-3-4.79c-1.2-1-2.59-2.88-2.65-3.77s.13-4.35,0-6.58.79-4,1.32-3.45.53,3.19,1.72,3.58,2-2.24,2-2.24Z"/><path class="cls-6" d="M184,430.46s-5.65-.48-9.48,1.63l.5,2.05s7.17-2.54,10.53-1.87C185.54,432.27,185.29,430.5,184,430.46Z"/><path class="cls-6" d="M186.58,433.65s-5.66-.48-9.48,1.63l.49,2.05s7.17-2.54,10.53-1.86C188.12,435.47,187.88,433.7,186.58,433.65Z"/><path class="cls-6" d="M188.83,436.72s-5.66-.48-9.48,1.63l.5,2s7.17-2.54,10.53-1.87C190.38,438.53,190.13,436.76,188.83,436.72Z"/><path class="cls-3" d="M179.8,158.16s.36,17.69.7,22.25-1.4,5.44-1.15,10.09-1.56,4.82-.37,10.06-.13,11.31,0,13.81a15.61,15.61,0,0,0,1.39,6.4,30.06,30.06,0,0,1,2.37,10.56c-.08,3.49,2.11,8,3.42,12,0,0,5.32,8.37-13.3,6.32-11.89-1.31-10.94.9-21.08,2.56s-11.31.82-22.82-.51-23.29-1.11-22-4c3.41-7.23,3.57-13.85,4.69-16.84,1.23-3.27.72-8.58,2.35-13.79s-.36-7.45-.53-13.52-.52-17.37.34-24.72c2.15-18.41-3.08-23.22-3.08-23.22l17.83-17.65s21.33,2.74,22.56,2.78,11.51-1.64,11.51-1.64Z"/><path class="cls-9" d="M175.86,97a8.65,8.65,0,0,1-.73-1.66c-.33-1.62,1.25-3.17,1-4.8-.17-1-1-1.84-1.32-2.84s.09-2.28-.56-3.22c-.5-.74-1.51-1.11-2.25-1.67a4.12,4.12,0,0,0-1-1.91c-.1-1.41.47-3-.65-4s-2.88-.62-4.39-.85a3.56,3.56,0,0,0-2.48-2.45,4.66,4.66,0,0,0-.73-1.73c-1-1.25-3.05-1.37-4.8-1.39a8.58,8.58,0,0,1-3.65-.67,6.31,6.31,0,0,0-.92-1.35,4.36,4.36,0,0,0-.71-.59v0a2.26,2.26,0,0,0-1.88-.67,13.27,13.27,0,0,0-4.21.15l-2,.31a3.11,3.11,0,0,0-.4-.22c-1.33-.58-2.9.08-4.14.78l-.39.22-4.36.69a7.51,7.51,0,0,0-1.64-.66,3.71,3.71,0,0,0-3.25,1.46,18.18,18.18,0,0,1-2.26,2.7c-1.56,1.23-4.15,1.57-5,3.25-.53,1.06-.15,2.31-.37,3.44a5.94,5.94,0,0,0-.49.77q-.13.31-.24.63c-.83.91-2.1,1.59-2.5,2.71s.29,2.45.22,3.69c-.11,2.3-2.83,4-2.9,6.33-.06,1.76,1.48,3.35,1.38,5.11s-2,3.78-1,5.45a7.87,7.87,0,0,0,1.74,1.54,6.21,6.21,0,0,1,1.68,2.37,5.72,5.72,0,0,0,0,1.53c.32,1-1.71,1.8-.54,4.53,1.58,3.7,4.67,1.75,5.6,3.8.5,1.09.38,2.46,1.19,3.35s2.58.93,3.42,2a22.43,22.43,0,0,0,2.73,2.61c2,1.1,3.31,0,4.29-.28,1.27,1.34,2.79,2.69,4.63,2.73,2.72,0,4.79-2.77,7.51-3,2.29-.15,4.32,3.13,6.27,1.92,1.25-.76,2.31-2.73,3.72-3.1,1.17-.31,2.44.38,3.58-.06,3.57-1.38,1.85-4.27,3.44-5.25a20.14,20.14,0,0,1,2.18-.78c2.23-1,2.31-4.09,3.31-6.33s3.16-4,3.15-6.47a5.53,5.53,0,0,0-.47-2.08c.28-.58.71-1.11,1-1.68A4.71,4.71,0,0,0,175.86,97Z"/><path class="cls-9" d="M176.29,96.72a4,4,0,0,1-.7-2.1,7.49,7.49,0,0,1,.62-1.91,3.86,3.86,0,0,0-.15-3.63,5.62,5.62,0,0,1-.87-2A15.9,15.9,0,0,0,175,85c-.36-1.42-1.72-1.89-2.79-2.67l.23.29a4.92,4.92,0,0,0-1.14-2.12l.15.35c-.08-1.47.46-3.24-.79-4.38s-3.1-.77-4.61-1l.34.35a4.15,4.15,0,0,0-2.83-2.8l.35.35A4.29,4.29,0,0,0,162.6,71a4.72,4.72,0,0,0-2.13-.88,17.09,17.09,0,0,0-2.76-.2,13.65,13.65,0,0,1-1.57-.12,3.32,3.32,0,0,1-1.49-.44,12.71,12.71,0,0,1-.81-1.17,6.43,6.43,0,0,0-.78-.65,3.27,3.27,0,0,0-.92-.69,4,4,0,0,0-1.33-.24,16.79,16.79,0,0,0-3.17,0c-1.08.12-2.16.31-3.24.48l.38.05a4.43,4.43,0,0,0-4.3.17,9.4,9.4,0,0,1-1.1.55,8.92,8.92,0,0,1-1.37.24l-2.9.46.39.05a6.37,6.37,0,0,0-2.1-.75,3.67,3.67,0,0,0-2.29.65c-1.38.91-2,2.5-3.22,3.55-1,.89-2.45,1.23-3.63,1.93a3.69,3.69,0,0,0-2,3.39c0,.41,0,.83,0,1.24a4.66,4.66,0,0,1-.58,1.34,5.53,5.53,0,0,1-1.55,1.65A3.92,3.92,0,0,0,119,83.21a4.48,4.48,0,0,0,0,2.3,4.2,4.2,0,0,1,0,2.33,7.77,7.77,0,0,1-1.08,1.9,7,7,0,0,0-1.65,3.63c0,1.51.92,2.76,1.28,4.17.41,1.59-.67,2.9-1.07,4.36a3,3,0,0,0,0,1.86,3.91,3.91,0,0,0,1.49,1.66,6,6,0,0,1,1.7,1.81,2,2,0,0,1,.34.84c0,.44-.07.87,0,1.31.08.7-.6,1.37-.78,2.05a4.66,4.66,0,0,0,.95,3.83,4.32,4.32,0,0,0,2.6,1.61c.74.18,1.81.16,2.27.88a9.43,9.43,0,0,1,.66,2.35,3.17,3.17,0,0,0,1.31,1.79,18,18,0,0,0,2,.88,5,5,0,0,1,1.29,1.13,9.79,9.79,0,0,0,2.77,2.37,3.81,3.81,0,0,0,2.4.25,18.09,18.09,0,0,0,1.86-.69l-.49-.13c1.44,1.51,3.25,3.08,5.48,2.86,1.92-.19,3.43-1.51,5.09-2.34a3.79,3.79,0,0,1,2.68-.5,8.86,8.86,0,0,1,2.25,1.2,5.24,5.24,0,0,0,2.06.88,2.64,2.64,0,0,0,2.05-.76c.73-.63,1.3-1.42,2-2.05.95-.8,1.91-.58,3.05-.47a4.08,4.08,0,0,0,4.11-2.56c.41-1.08.12-2.63,1.4-3.1a6.84,6.84,0,0,0,2.71-1.24,5.73,5.73,0,0,0,1.31-2.18c.38-1,.61-2,1-3a13.15,13.15,0,0,1,1.68-3,11.44,11.44,0,0,0,1.56-2.9,5.46,5.46,0,0,0-.27-3.65l0,.38a12.83,12.83,0,0,0,1.64-3.24,5.34,5.34,0,0,0-.37-3.27c-.25-.59-1.11-.08-.86.5a4.31,4.31,0,0,1-.18,3.74c-.3.54-.7,1-1,1.57s.05,1,.19,1.6c.57,2.3-1.18,4.13-2.3,5.93s-1.31,3.63-2.09,5.44a3.45,3.45,0,0,1-1.84,2c-.88.35-2,.4-2.58,1.21-.76,1-.44,2.42-1.12,3.48a3.13,3.13,0,0,1-2.5,1.37c-1.1,0-2.16-.39-3.21.1a7.54,7.54,0,0,0-2.15,1.87c-.53.57-1.18,1.39-2.05,1.3a5.62,5.62,0,0,1-2.19-1.08,6.42,6.42,0,0,0-2.32-1c-2.14-.37-4,1.3-5.82,2.23a4.32,4.32,0,0,1-3.38.49,8.14,8.14,0,0,1-3.26-2.4.47.47,0,0,0-.49-.13,9.82,9.82,0,0,1-2.22.74,2.91,2.91,0,0,1-2.19-.81c-.54-.48-1.06-1-1.56-1.51a6.36,6.36,0,0,0-1.43-1.31,13.73,13.73,0,0,1-2.36-1.1c-.78-.65-.79-1.82-1-2.72a2.84,2.84,0,0,0-2.57-2.12,5.88,5.88,0,0,1-1.74-.5,3.66,3.66,0,0,1-1.59-2,3,3,0,0,1,0-2.3,10.7,10.7,0,0,0,.66-1.31,1.58,1.58,0,0,0,0-.65c-.07-.51.09-1,0-1.53a3.45,3.45,0,0,0-.59-1.22,5.84,5.84,0,0,0-.93-1.17c-.69-.69-1.94-1.17-2.16-2.21a4.88,4.88,0,0,1,.7-2.63,5.16,5.16,0,0,0,.56-2.61,10.38,10.38,0,0,0-.93-2.75,3.6,3.6,0,0,1-.25-2.69,9.66,9.66,0,0,1,1.33-2.25,8.27,8.27,0,0,0,1.24-2.3A6.11,6.11,0,0,0,120,85a2.85,2.85,0,0,1,0-1.56,3.33,3.33,0,0,1,1-1.21c.34-.31.7-.59,1-.9a2.6,2.6,0,0,0,.46-.48c.15-.25.21-.57.36-.83a4.11,4.11,0,0,0,.42-.69,2.29,2.29,0,0,0,.08-.64c0-.58,0-1.17,0-1.75a2.62,2.62,0,0,1,1.53-2.16c1.62-.93,3.34-1.37,4.57-2.9a13.63,13.63,0,0,1,1.94-2.34,2.78,2.78,0,0,1,3.2-.31,1.76,1.76,0,0,0,1.31.18l1.94-.3c.6-.09,1.22-.15,1.81-.29a9.07,9.07,0,0,0,1.57-.76,5,5,0,0,1,1.56-.45,2.32,2.32,0,0,1,.87.06c.3.08.56.32.86.37a5.77,5.77,0,0,0,1.53-.22c.62-.1,1.24-.21,1.87-.27a12.28,12.28,0,0,1,3.53.07,2.42,2.42,0,0,1,1.07.63,4.77,4.77,0,0,1,1.11,1.26,1.57,1.57,0,0,0,.91.84,6.7,6.7,0,0,0,1.6.4c1,.15,2.08.1,3.13.18a4.93,4.93,0,0,1,2.8.84,2.62,2.62,0,0,1,.77,1.26,3.1,3.1,0,0,0,.23.73c.14.21.39.25.61.35a3,3,0,0,1,1.82,2,.48.48,0,0,0,.35.35c1.39.19,4.17-.29,4.65,1.52a10.7,10.7,0,0,1,0,2.53,1.28,1.28,0,0,0,.37,1,4.42,4.42,0,0,1,.64,1.33c.26.74,1.38,1,2,1.51.84.7.67,1.7.75,2.68a5.57,5.57,0,0,0,.88,2.34,2.8,2.8,0,0,1,.4,2.5,16.23,16.23,0,0,0-.85,2.61,4.85,4.85,0,0,0,.82,2.77C175.71,97.8,176.57,97.29,176.29,96.72Z"/><path class="cls-2" d="M160,137.28s-5.29-1.16-6.08-2.4c-1.68-2.64-1-19.1-1-19.1l-6.49-.18-6.48.23s.4,15.85-.62,18.81c-.67,2-5.24,2.55-5.24,2.55-.37,2.78-4.62,18.8,14.45,18.73.08,0-1.49,1.66-1.4,1.66C158.77,157.72,161.74,150.5,160,137.28Z"/><g class="cls-10"><path class="cls-2" d="M153.24,133.67c-1-4.58-.41-15.87-.41-15.87l-6.48-.2-6.49.25s.41,7.76.16,13.27A32,32,0,0,0,153.24,133.67Z"/></g><path class="cls-2" d="M164.65,97.35c-.69-10.73-6-14-9.29-15.82a15.48,15.48,0,0,0-8.77-2,15.4,15.4,0,0,0-8.75,2.09c-3.3,1.8-8.56,5.14-9.17,15.88-1,18.18,7.13,31.67,18.1,31.63S165.83,115.53,164.65,97.35Z"/><path class="cls-2" d="M128.52,102.17s-5.18.51-5.36,5,7.15,4.13,7.15,4.13Z"/><g class="cls-10"><path class="cls-2" d="M124.51,108.07s2.18-2,4.4-1.8c-.1-.81-.18-1.65-.23-2.49A4.76,4.76,0,0,0,124.51,108.07Z"/></g><path class="cls-9" d="M148.36,114.75a1.85,1.85,0,0,0,1.14-.34.94.94,0,0,0,.32-.77c0-1-.8-1.23-1.32-1.42-.21-.08-.45-.16-.5-.26a23.9,23.9,0,0,1-.25-3.81.21.21,0,1,0-.41,0,22.68,22.68,0,0,0,.3,4c.12.24.4.34.72.46.51.18,1,.37,1,1a.52.52,0,0,1-.18.45,2.5,2.5,0,0,1-1.7.18.2.2,0,0,0-.24.17.2.2,0,0,0,.16.23A3.82,3.82,0,0,0,148.36,114.75Z"/><path class="cls-9" d="M160.51,102.31c.31-.35-3.9-2.25-7-1.31-2.73.82,2.3,1.29,4.85,1.47S160.51,102.31,160.51,102.31Z"/><path class="cls-9" d="M132.87,104.2c-.39-.32,3.25-3.45,6.48-3.12,2.86.29-1.93,2-4.36,2.79S132.87,104.2,132.87,104.2Z"/><path class="cls-9" d="M141.75,119.11a5.82,5.82,0,0,0,4.87,2.76c3.94,0,5.11-2.8,5.11-2.8"/><path class="cls-2" d="M164.77,102.17s5.17.51,5.35,5-7.14,4.13-7.14,4.13Z"/><g class="cls-10"><path class="cls-2" d="M168.78,108.07s-2.19-2-4.4-1.8c.09-.81.17-1.65.22-2.49A4.77,4.77,0,0,1,168.78,108.07Z"/></g><path class="cls-11" d="M139.36,115a3.12,3.12,0,1,1-3.12-3.12A3.12,3.12,0,0,1,139.36,115Z"/><path class="cls-11" d="M160,115a3.12,3.12,0,1,1-3.12-3.12A3.12,3.12,0,0,1,160,115Z"/><path class="cls-9" d="M123.64,83.58c.92-1.11.08-2.73-.41-4.09-.6-1.64-.54-3.7.74-4.89,1-.93,2.5-1.13,3.57-2,1.89-1.51,2.11-4.8,4.4-5.57s4.91,1.86,7.19.9c1-.41,1.57-1.38,2.41-2a4.24,4.24,0,0,1,4.89-.09c1.15.81,2,2.26,3.44,2.24s2.7-1.91,4.22-1.65,1.85,2.64,3.11,3.74,2.8.77,4.17,1.29a4.24,4.24,0,0,1,2.48,4.92,16.8,16.8,0,0,0-9.11-3.82,90.27,90.27,0,0,0-10-.42,40.51,40.51,0,0,0-7.39.11,10.11,10.11,0,0,0-6.44,3.3"/><path class="cls-9" d="M123.9,83.84c1.43-1.83-.41-4-.57-5.91a3.62,3.62,0,0,1,.85-2.88A9.83,9.83,0,0,1,127,73.54c1.73-.9,2.36-2.61,3.27-4.2a3.71,3.71,0,0,1,1.67-1.76,4,4,0,0,1,2.76.2c1.8.61,3.7,1.46,5.4.14.87-.67,1.49-1.65,2.54-2.07a3.83,3.83,0,0,1,3.24.2c1.6.91,2.69,3.12,4.86,2.33.84-.3,1.49-.94,2.29-1.31a1.55,1.55,0,0,1,2.11.71,17.44,17.44,0,0,0,1.48,2.46,4.86,4.86,0,0,0,3,1.3,4.47,4.47,0,0,1,3,1.43,3.66,3.66,0,0,1,.73,3.27l.87-.22c-3.33-3.14-8.11-4.07-12.52-4.3-2.6-.14-5.2-.08-7.81-.17a31.41,31.41,0,0,0-7.38.27,10,10,0,0,0-6,3.37c-.41.51.3,1.25.74.73,2.94-3.43,7.77-3.42,11.91-3.27,4.66.16,9.48-.21,14,.95a15.37,15.37,0,0,1,6.27,3.15.52.52,0,0,0,.86-.23,4.83,4.83,0,0,0-2.14-5.18,9.11,9.11,0,0,0-3.08-.85,3.24,3.24,0,0,1-2.41-1.73c-.82-1.45-1.72-3.4-3.77-2.66-.89.32-1.57,1.05-2.46,1.38-1.13.43-2-.41-2.74-1.13A5.6,5.6,0,0,0,145,64.73a4.87,4.87,0,0,0-3.1.39c-1,.51-1.63,1.51-2.56,2.14a3.3,3.3,0,0,1-3,.06c-1.8-.6-3.79-1.53-5.51-.22-1.48,1.11-1.87,3.06-3,4.48a7.85,7.85,0,0,1-3.07,1.89A4.1,4.1,0,0,0,122.6,76a5.81,5.81,0,0,0,.15,3.45c.4,1.19,1.43,2.76.58,4-.24.33.31.77.57.44Z"/><path class="cls-9" d="M138.53,68.51c1.62.12,2.83-1.38,3.82-2.66s2.54-2.61,4.05-2,2.07,2.57,3.58,2.55c.83,0,1.48-.68,2.22-1.08a3.75,3.75,0,0,1,4.74,1.19c.39.6.63,1.33,1.23,1.7,1.3.8,3.05-.69,4.45-.08,1.58.69,1.16,3.23,2.41,4.43.61.58,1.52.74,2.15,1.28,1.15,1,1,2.8.54,4.24a.82.82,0,0,1-.33.51.88.88,0,0,1-.82-.13c-4.53-2.44-8.7-6-13.79-6.68-1.93-.27-4.06-.17-5.59-1.36"/><path class="cls-9" d="M138.53,68.79c2.17.14,3.34-1.87,4.64-3.25.73-.78,1.88-1.73,3-1.29.8.3,1.3,1.1,1.87,1.68a2.63,2.63,0,0,0,2.11.94c1.08-.11,1.78-1,2.78-1.34a3.28,3.28,0,0,1,2.74.41c.87.56,1.08,1.53,1.74,2.26a2.46,2.46,0,0,0,2.4.65c.85-.15,2-.73,2.79-.18.65.44.8,1.41,1,2.11A4.33,4.33,0,0,0,164.75,73c.78.69,2,.81,2.54,1.77a3.93,3.93,0,0,1,0,3c-.11.33-.11.38-.44.22s-.48-.27-.71-.41c-.51-.29-1-.6-1.51-.91l-3-1.87a26.82,26.82,0,0,0-6.87-3.24A22.45,22.45,0,0,0,151,71a9.41,9.41,0,0,1-3.62-.89c-.39-.22-.83.31-.49.63,1.82,1.72,4.34,1.35,6.62,1.82a23.07,23.07,0,0,1,6.87,2.93c1.07.63,2.13,1.29,3.2,1.94l1.52.89a8.15,8.15,0,0,0,1.64.83c1.17.34,1.53-.87,1.69-1.77a4.76,4.76,0,0,0-.23-3c-.54-1.11-1.6-1.33-2.55-2a4,4,0,0,1-1.26-2.48,3.49,3.49,0,0,0-1.29-2.12,3.42,3.42,0,0,0-2.72-.11,4.48,4.48,0,0,1-1.41.23c-.65-.05-1-.54-1.25-1.07a4.54,4.54,0,0,0-2-2.06,4.41,4.41,0,0,0-2.84-.28,4.68,4.68,0,0,0-1.39.66,2.64,2.64,0,0,1-1.62.7c-1-.11-1.62-1.3-2.3-1.88a2.82,2.82,0,0,0-3-.52,7,7,0,0,0-2.72,2.45c-.79,1-1.8,2.32-3.24,2.29a.29.29,0,0,0,0,.57Z"/><path class="cls-9" d="M127.53,76.58a3.6,3.6,0,0,0,2.75-2.12,7.18,7.18,0,0,0,.49-3.56c-.08-1.05-.21-2.29.59-3,1.25-1.1,3.2.32,4.84,0,1.82-.33,2.74-2.65,4.55-3,2.41-.47,4.43,2.83,6.81,2.22"/><path class="cls-9" d="M127.53,76.9a4.44,4.44,0,0,0,3.64-4.06,31.25,31.25,0,0,0,0-3.21,1.84,1.84,0,0,1,.52-1.39,1.87,1.87,0,0,1,1.55-.22,9.92,9.92,0,0,0,2.85.41,4.07,4.07,0,0,0,2.16-1.1,11,11,0,0,1,2-1.69,2.51,2.51,0,0,1,2.35.11c1.64.8,3.14,2.34,5.12,1.88.63-.15.36-1.12-.27-1-1.63.35-3.1-1.22-4.47-1.84a3.73,3.73,0,0,0-2.34-.37,4.37,4.37,0,0,0-2,1.21,7.65,7.65,0,0,1-2.08,1.69c-.95.38-2,0-2.93-.21a2.9,2.9,0,0,0-2.42.35,2.86,2.86,0,0,0-.91,2.42,12.73,12.73,0,0,1-.13,3.85,3.37,3.37,0,0,1-2.68,2.51c-.36,0-.28.69.09.64Z"/><path class="cls-9" d="M120.59,85.05c-.39,1.36-1.47,1.66-2.69,2a3.39,3.39,0,0,0-2.32,1.59,2.21,2.21,0,0,0,.47,2.4c.58.69,1.5,1.23,1.61,2.2a2.81,2.81,0,0,1-1.22,2.43,1.9,1.9,0,0,0-.52,2.24c.27.65,1,1.33,1,2.06,0,.48-.49.74-.78,1.06a2.1,2.1,0,0,0-.52,1.22c-.23,2.88,3.68,3.28,4.09,5.89,0,.28.42.17.44-.06.27-2.4-2.91-3-3.52-5.06a1.33,1.33,0,0,1,.4-1.5,2.59,2.59,0,0,0,.86-1,2.64,2.64,0,0,0-.43-2.1,4.87,4.87,0,0,1-.45-1c-.1-.48.21-.69.55-1A3.76,3.76,0,0,0,119,94.09a3.26,3.26,0,0,0-.68-2.59c-.46-.57-1.57-1.19-1.64-2-.11-1.18,1.89-1.45,2.65-1.8a3.44,3.44,0,0,0,2-2.49.35.35,0,0,0-.67-.18Z"/><path class="cls-9" d="M171,116a2.52,2.52,0,0,1,1.25-2.6,14.55,14.55,0,0,0,2.51-1.3,2.38,2.38,0,0,0,.91-2.11c-.1-.87-.66-1.67-.45-2.56.33-1.35,1.68-2.32,2.29-3.55a3.18,3.18,0,0,0,.28-2.16,5.09,5.09,0,0,0-1.4-2.51.17.17,0,0,0-.28.17,7.35,7.35,0,0,0,.58,1.2,4.23,4.23,0,0,1,.42,1.64,3.19,3.19,0,0,1-.94,2.17c-.87,1-2,2-2,3.4,0,.9.6,1.71.53,2.59s-1.27,1.42-2,1.78c-1.58.77-2.66,2.09-2.29,3.93.07.37.71.29.66-.09Z"/><path class="cls-9" d="M128,101.33a2.2,2.2,0,0,1-.53-.85c0-.08-.05-.16-.08-.24l0-.15c0-.16,0,0,0,0a2.09,2.09,0,0,1,0-.25s0-.06,0-.1c0,.12,0-.06,0-.09l.06-.22c0-.13,0,.05,0,0l.06-.1a.75.75,0,0,1,.07-.12c0-.08,0,0,0,0l.09-.1s.12-.11.08-.08.06,0,.06,0a.41.41,0,0,1,.11-.07s.09,0,0,0l.11,0a.38.38,0,0,0,.1,0c.06,0-.12,0,0,0h.24c.14,0-.11,0,0,0l.08,0,.12,0c.12,0-.06,0,0,0l.19.11.07,0c-.11-.08,0,0,0,0l.07.08c.06,0-.06-.1,0,0a1.51,1.51,0,0,1,.09.18c0-.12,0,0,0,0s0,.07,0,.1,0,.13,0,0a.66.66,0,0,1,0,.14.34.34,0,0,1,0,.1c0,.13,0-.11,0,0s0,.13,0,.19,0-.06,0,0L129,100l-.06.1s-.1.12,0,0-.09.1-.14.14-.13.09,0,0l-.1.06-.07,0h0l-.11,0c-.14,0,.07,0,0,0a.53.53,0,0,1-.25,0c.13,0,0,0,0,0l-.12,0-.12,0h0l-.23-.14c.14.09-.06,0-.1-.08s0,0,0,0l-.19-.19-.08-.09c.07.08,0,0,0,0a2.29,2.29,0,0,1-.14-.27.46.46,0,0,0-.58-.19.47.47,0,0,0-.28.55,2.15,2.15,0,0,0,2,1.68A1.93,1.93,0,0,0,130,98.61a2,2,0,0,0-1.11-.8,1.94,1.94,0,0,0-1.34.1,1.91,1.91,0,0,0-.93,1,2.47,2.47,0,0,0-.09,1.61,3.23,3.23,0,0,0,1,1.4.42.42,0,0,0,.6-.6Z"/><path class="cls-9" d="M165.16,97.27a29.39,29.39,0,0,0-2.69-7.76,19.18,19.18,0,0,0-24.1-7.76A18.7,18.7,0,0,0,129,90.86a5.51,5.51,0,0,0-1,1.62,7.93,7.93,0,0,0-.57,4.22,3.66,3.66,0,0,0,1.88,3l-.21.14a.26.26,0,0,0-.48.07c-.22.82-.4,2.2.84,2.27a1.44,1.44,0,0,0,1.14-.53,2.24,2.24,0,0,0,.33-1.75c0-.27-.09-.2.19-.22a2.22,2.22,0,0,1,.37,0,3.49,3.49,0,0,0,1,0,1.66,1.66,0,0,0,1.22-.86c.28-.59,0-1.12-.13-1.71s.21-.89.66-1.25a4,4,0,0,0,1.34-1.54,1.35,1.35,0,0,1,.26.38.79.79,0,0,1-.13.61c-.3.59-.81,1.13-.41,1.8.18.32.6.09.55-.23s.18-.52.31-.7a5.21,5.21,0,0,0,.56-.77,1.62,1.62,0,0,0-.34-1.82c-.22-.24-.51-.46-.74-.7a4.56,4.56,0,0,0-.18-.6,1.11,1.11,0,0,0,.48,0c1.2-.22,1.44-1.34,1.39-2.37.63.08,1.24.66,1.77.91a1.58,1.58,0,0,0,2-.28c.66-.75.48-1.89.68-2.79.05-.21.09-.41.3-.41a.59.59,0,0,1,.33.17,1.73,1.73,0,0,1,.31.35,1.65,1.65,0,0,0,1.17,1.71,1.9,1.9,0,0,0,1.83-.4c0,.12.06.24.1.36.14.46.57,1.14.34,1.63s-.75.58-1.14.71a2.93,2.93,0,0,0-1.3.66,2.7,2.7,0,0,0-.54,1.29c0,.22.28.32.34.1a3.08,3.08,0,0,1,.37-.94,1.45,1.45,0,0,1,1.1-.47,3.53,3.53,0,0,0,1.42-.41,1.94,1.94,0,0,0,.88-1.29,6.4,6.4,0,0,0-.22-1.94c-.06-.55.14-.71.62-.92a2.31,2.31,0,0,0,1.15-.84,1.11,1.11,0,0,0,.17-.49,1.31,1.31,0,0,1,0,1.17c-.41.74-1.28,1-1.12,2a2.49,2.49,0,0,0,1.38,1.74,2.86,2.86,0,0,0,.44.15,4.44,4.44,0,0,0,.77.64,1.75,1.75,0,0,1,.7.82,1.52,1.52,0,0,1-.15,1.23,1.18,1.18,0,0,0,.77,1.67.17.17,0,0,0,.13-.31c-.8-.45,0-1.35.16-2a2.29,2.29,0,0,0-.45-1.94,1.32,1.32,0,0,0-.24-.23,2.71,2.71,0,0,0,.77-.46,7.28,7.28,0,0,0-.12.89,2.8,2.8,0,0,0,.71,2.07,2.53,2.53,0,0,0,3.32.18,2,2,0,0,0,.42,0c.22,0,.61-.28.82-.16.37.21.33,1,.45,1.39a1.43,1.43,0,0,0,2.13,1c.33-.18.46-.23.66.16a7.47,7.47,0,0,1,.39.92,5.13,5.13,0,0,0,.89,1.64,2.67,2.67,0,0,0,1.5.81,3.11,3.11,0,0,1,.22.4c.15.39-.06.74-.13,1.13s.1,1.15.7,1.2a.2.2,0,0,0,.05-.39c-.63-.14.16-1.26.22-1.58a1.4,1.4,0,0,0-.12-.81l.12,0C165.39,99.47,165.38,98.25,165.16,97.27ZM146.63,86.83l-.06,0a1.37,1.37,0,0,1,.58-.76c.22.07.4.17.36.28S146.81,86.74,146.63,86.83Z"/><path class="cls-12" d="M164.66,97.77A28.7,28.7,0,0,0,162,90a19,19,0,0,0-33.52,1.34,5.88,5.88,0,0,0-1,1.63,7.94,7.94,0,0,0-.58,4.22c.17,1.12.76,2.54,1.88,3l-.2.13a.28.28,0,0,0-.49.08c-.21.82-.39,2.2.85,2.27a1.44,1.44,0,0,0,1.14-.53,2.25,2.25,0,0,0,.33-1.75c0-.27-.09-.2.19-.23a2.33,2.33,0,0,1,.37,0,3.49,3.49,0,0,0,1,0,1.59,1.59,0,0,0,1.21-.85c.28-.59,0-1.13-.12-1.71s.21-.9.66-1.25A4,4,0,0,0,135,94.82a1.6,1.6,0,0,1,.26.38.84.84,0,0,1-.13.61c-.3.59-.81,1.13-.41,1.8.18.31.6.09.55-.23s.18-.52.31-.7a4.23,4.23,0,0,0,.55-.78,1.59,1.59,0,0,0-.34-1.81c-.21-.24-.5-.46-.73-.71-.05-.19-.11-.39-.18-.59a1.11,1.11,0,0,0,.48,0c1.19-.22,1.44-1.34,1.39-2.37.62.08,1.23.66,1.77.91a1.58,1.58,0,0,0,2-.28c.65-.76.47-1.89.68-2.79.05-.21.09-.41.3-.41a.59.59,0,0,1,.33.17,1.68,1.68,0,0,1,.3.35,1.64,1.64,0,0,0,1.17,1.7,1.89,1.89,0,0,0,1.84-.39,2.37,2.37,0,0,0,.09.36c.15.46.58,1.14.35,1.62s-.75.58-1.14.72a2.88,2.88,0,0,0-1.3.66,2.7,2.7,0,0,0-.54,1.29c0,.22.28.32.34.1a2.84,2.84,0,0,1,.37-.94,1.45,1.45,0,0,1,1.1-.47,3.57,3.57,0,0,0,1.42-.41,1.94,1.94,0,0,0,.88-1.29,6.4,6.4,0,0,0-.22-1.94c-.07-.55.14-.72.62-.92a2.31,2.31,0,0,0,1.15-.84,1.43,1.43,0,0,0,.17-.49,1.34,1.34,0,0,1,0,1.17c-.41.74-1.28,1-1.12,2A2.48,2.48,0,0,0,148.65,92a2.28,2.28,0,0,0,.44.15,4.76,4.76,0,0,0,.76.64,1.65,1.65,0,0,1,.7.82,1.48,1.48,0,0,1-.14,1.23,1.18,1.18,0,0,0,.77,1.67.17.17,0,0,0,.13-.31c-.8-.45,0-1.35.16-2a2.29,2.29,0,0,0-.45-1.94,1.05,1.05,0,0,0-.24-.23,2.86,2.86,0,0,0,.77-.46,7.28,7.28,0,0,0-.12.89,2.76,2.76,0,0,0,.71,2.07,2.53,2.53,0,0,0,3.32.18,2,2,0,0,0,.42,0c.22,0,.61-.28.82-.16.37.21.33,1,.45,1.39a1.42,1.42,0,0,0,2.13.94c.33-.17.46-.22.66.17a9.22,9.22,0,0,1,.39.91,5,5,0,0,0,.89,1.65,2.64,2.64,0,0,0,1.5.81,2.19,2.19,0,0,1,.21.4c.16.39-.05.74-.12,1.13s.1,1.15.7,1.2a.2.2,0,0,0,.05-.39c-.63-.14.16-1.26.22-1.58a1.39,1.39,0,0,0-.12-.81l.12,0C164.9,100,164.89,98.75,164.66,97.77ZM143.78,86.83l-.06,0a1.37,1.37,0,0,1,.58-.76c.22.07.4.17.36.28S144,86.74,143.78,86.83Z"/><path class="cls-13" d="M128.52,102.17s2.21-19.49,18.16-19.32,18.09,19.32,18.09,19.32S166.12,76,145.93,76.9C124.57,77.85,128.52,102.17,128.52,102.17Z"/><path class="cls-14" d="M148.05,158.84a17,17,0,0,1-8.36-2.36c-5.94-3.35-6.66-12.17-7.1-17.45-.05-.68-.1-1.31-.16-1.86l3.4-.76c.07.6.12,1.29.18,2,.39,4.69.92,11.12,4.93,13.38,6.64,3.74,13.38,2.21,16.78-3.8,1.49-2.65,1.68-7.41,1.77-9.7,0-.76,0-1.26.11-1.67l3.38,1c0,.17,0,.51,0,.94-.11,2.82-.35,8.67-2.55,12.57C157.56,156.18,153.06,158.84,148.05,158.84Z"/><path class="cls-9" d="M136.24,108.69a3.54,3.54,0,0,1,.48-2.86,4.14,4.14,0,0,1,2.61-1.79,2.55,2.55,0,0,1,1.92.43,3.62,3.62,0,0,1,1.09,1.2,4.9,4.9,0,0,1,.65,2.76c-.71-.64-1.3-1.27-1.89-1.77a3.78,3.78,0,0,0-.83-.56,1,1,0,0,0-.58-.1,4.81,4.81,0,0,0-1.8.84A7.59,7.59,0,0,0,136.24,108.69Z"/><path class="cls-9" d="M152.73,108.69a3.54,3.54,0,0,1,.48-2.86,4.14,4.14,0,0,1,2.61-1.79,2.55,2.55,0,0,1,1.92.43,3.48,3.48,0,0,1,1.08,1.2,4.83,4.83,0,0,1,.66,2.76c-.71-.64-1.3-1.27-1.89-1.77a3.78,3.78,0,0,0-.83-.56,1,1,0,0,0-.58-.1,4.81,4.81,0,0,0-1.8.84A7.59,7.59,0,0,0,152.73,108.69Z"/><path class="cls-12" d="M212.72,439.3l-.06,0a1.37,1.37,0,0,1,.58-.76c.21.07.4.17.36.29S212.89,439.21,212.72,439.3Z"/><path class="cls-15" d="M182.29,169.34c2.12-6.91.61-14.39,1.47-21.58.08-.73.46-1.68,1.19-1.59a1.12,1.12,0,0,1,.66.42c.79.92.71,2.29.55,3.49a83.23,83.23,0,0,1-3,13.61"/><path class="cls-15" d="M182.54,169.41c1.62-5.14,1.29-10.56,1.33-15.87,0-1.31,0-2.63.12-3.94,0-.52.1-3.72,1.23-2.84.89.7.65,2.35.53,3.32-.19,1.44-.42,2.86-.69,4.29a89.15,89.15,0,0,1-2.26,9.22c-.15.48.61.69.76.21a79,79,0,0,0,2.32-9.33c.27-1.49.51-3,.7-4.48a4.88,4.88,0,0,0-.5-3.46,1.31,1.31,0,0,0-2.2-.25c-.73.92-.65,2.45-.72,3.55-.19,3,0,6,0,9A36.31,36.31,0,0,1,182,169.27a.26.26,0,0,0,.51.14Z"/><path class="cls-15" d="M183.46,163.24q3.31-8.37,7.11-16.54c.26-.56.78-1.22,1.34-1a1,1,0,0,1,.45.58c.45,1.25-.2,2.6-.85,3.77q-4,7.23-8.31,14.29"/><path class="cls-15" d="M183.85,163.35c2-4.81,4-9.6,6.15-14.32.25-.56.5-1.11.76-1.66.18-.39.71-1.76,1.18-.88s-.34,2.5-.81,3.36c-1.25,2.28-2.55,4.52-3.86,6.76-1.47,2.52-3,5-4.46,7.53a.45.45,0,0,0,.78.46c1.61-2.53,3.11-5.13,4.61-7.73.74-1.3,1.49-2.6,2.22-3.91s1.48-2.49,2.06-3.81a3.83,3.83,0,0,0,.2-3.25c-.54-1-1.6-.74-2.18,0a8.61,8.61,0,0,0-.88,1.74l-1,2.11c-.6,1.33-1.19,2.67-1.77,4q-2,4.63-3.82,9.34c-.19.48.58.68.78.21Z"/><path class="cls-15" d="M114.28,170.71a52.18,52.18,0,0,0-2.3-11.24c-.84-2.31-2-4.53-2.46-6.95a1.45,1.45,0,0,1,.15-1.18,1,1,0,0,1,1.45,0,3,3,0,0,1,.73,1.43c1.71,5.79,3.28,11.82,2.34,17.78"/><path class="cls-15" d="M114.6,170.71c-.31-2.56-.59-5.12-1.14-7.64a47.76,47.76,0,0,0-2.47-7.26,15.45,15.45,0,0,1-1.06-3.53c0-.25-.06-.64.24-.77a.81.81,0,0,1,.79.28,4.73,4.73,0,0,1,.69,1.81,72.08,72.08,0,0,1,1.88,7.67,29.29,29.29,0,0,1,.29,9.2c-.07.49.67.71.75.21.94-6-.56-12-2.25-17.76-.29-1-.69-2.19-1.89-2.28s-1.5,1-1.34,2c.48,2.82,2,5.36,2.85,8.06a59.84,59.84,0,0,1,2,10.1c0,.35.67.27.63-.08Z"/><path class="cls-15" d="M113.52,168.61c-.39-3.68-2.42-7-4.63-10s-4.65-5.84-6.09-9.25c-.16-.38-.22-1,.18-1.07a.69.69,0,0,1,.51.13,9.67,9.67,0,0,1,3.21,3.67,96.68,96.68,0,0,1,6.15,13.41"/><path class="cls-15" d="M113.81,168.61c-.58-5.43-4.27-9.57-7.35-13.81a36,36,0,0,1-2.27-3.45c-.32-.57-.62-1.15-.88-1.74-.1-.22-.45-.81,0-.8.24,0,.69.47.87.62a12.33,12.33,0,0,1,2.34,3.11c.72,1.24,1.4,2.52,2,3.82,1.48,3,2.72,6.16,4,9.27.15.38.77.22.62-.17-1.16-3-2.36-6-3.74-8.94-.7-1.49-1.45-3-2.27-4.36a12.92,12.92,0,0,0-2.44-3.28c-.54-.48-2-1.63-2.39-.35a1.92,1.92,0,0,0,.23,1.28,22.24,22.24,0,0,0,1.08,2.12,90.53,90.53,0,0,0,5.33,7.43c2,2.76,3.85,5.8,4.27,9.25,0,.36.62.37.58,0Z"/><path class="cls-15" d="M114.5,187.51a.5.5,0,0,0,0-1,.5.5,0,0,0,0,1Z"/><path class="cls-15" d="M119.67,239a15,15,0,0,1,10.76-1.41c2.08.52,4.09,1.5,6.23,1.47,4.09,0,7.14-3.54,10.25-6.19,5.7-4.86,13.2-7.58,18-13.36a20.52,20.52,0,0,0,4.42-9.91c.21-1.39,0-3.2-1.3-3.66a2.76,2.76,0,0,0-2.38.57c-2.52,1.74-3.74,4.77-5.45,7.32-3.27,4.85-8.44,8-13.44,11.06a21.62,21.62,0,0,1-7.17,3.22,44.7,44.7,0,0,1-6.13.22A21.41,21.41,0,0,0,118,236a2.26,2.26,0,0,0-.71,1.65c.14,1.07,1.57,1.41,2.6,1.12s2-1,3.06-1"/><path class="cls-15" d="M119.87,239.4a14.85,14.85,0,0,1,7.39-1.7,15.21,15.21,0,0,1,3.67.6c1.22.35,2.4.81,3.63,1.08a8.79,8.79,0,0,0,6.29-.93,28.17,28.17,0,0,0,5.15-4c3.41-3.07,7.33-5.34,11.18-7.81s7.48-5.26,9.86-9.2a21.26,21.26,0,0,0,2.6-6.69c.32-1.62.63-4.09-1.1-5.07-1.95-1.11-4.15,1-5.28,2.41-1.38,1.72-2.33,3.72-3.55,5.54-2.67,4-6.65,6.78-10.64,9.27a62.17,62.17,0,0,1-6.38,3.69,13.13,13.13,0,0,1-3.84,1.16,31.59,31.59,0,0,1-4,.09,22.49,22.49,0,0,0-12.94,3.85,23,23,0,0,0-2.56,2.05,12.6,12.6,0,0,0-2.28,2.56,1.92,1.92,0,0,0,.28,2.53,2.92,2.92,0,0,0,2.38.52c1.12-.2,2.06-1,3.2-1.1a.45.45,0,0,0,0-.9,8.88,8.88,0,0,0-3,.82c-.62.2-2,.28-2.1-.63-.06-.55.47-1.09.8-1.46s.75-.83,1.15-1.22a20.36,20.36,0,0,1,2.53-2.11,21.2,21.2,0,0,1,12.19-3.83,20.78,20.78,0,0,0,7.32-.8,36,36,0,0,0,6.06-3.23c3.75-2.28,7.53-4.68,10.53-7.93a29.55,29.55,0,0,0,3.64-5.1c1.05-1.79,2.16-3.71,3.93-4.88.87-.57,2.1-.88,2.63.27a4.77,4.77,0,0,1,.13,2.7,19.92,19.92,0,0,1-2.28,6.4c-4.37,7.78-13.32,10.64-19.83,16.15-3,2.52-6.1,6.31-10.39,6.1-2.42-.12-4.63-1.35-7-1.7a15.35,15.35,0,0,0-6.7.51,17,17,0,0,0-3,1.31.41.41,0,0,0,.41.71Z"/><path class="cls-15" d="M119.93,191.84c.9,7.34,2.19,15.43,7.91,20.12a2.51,2.51,0,0,0,2.42.73c1.2-.52,1-2.27.58-3.52Q126,194.58,121.14,180a3.8,3.8,0,0,0-.93-1.72c-1.26-1.12-3.42,0-3.9,1.63s.14,3.32.76,4.88q2.15,5.44,4.3,10.88"/><path class="cls-15" d="M119.46,191.84c.59,5,1.29,10.23,3.58,14.83a16.72,16.72,0,0,0,4.58,5.8c.92.72,2.23,1.28,3.27.46a2.85,2.85,0,0,0,.74-2.82,26.52,26.52,0,0,0-1.28-4.15q-.81-2.4-1.6-4.82-1.59-4.77-3.17-9.53t-3.2-9.65c-.25-.77-.5-1.54-.77-2.31a4.14,4.14,0,0,0-1-1.78,2.59,2.59,0,0,0-2.72-.38,3.65,3.65,0,0,0-2.23,2.7,9.23,9.23,0,0,0,1,5q2.1,5.33,4.21,10.65c.26.66,1.35.37,1.08-.3-1.1-2.78-2.2-5.55-3.29-8.33-.54-1.35-1.14-2.69-1.57-4.07-.36-1.17-.65-2.68.16-3.74a2.1,2.1,0,0,1,2.35-.87,2.29,2.29,0,0,1,1,1.45c.24.68.46,1.38.69,2.07l2.82,8.47,5.64,16.94a12.08,12.08,0,0,1,.93,3.46,1.49,1.49,0,0,1-.34,1.14c-.53.52-1.34.06-1.84-.29a15.1,15.1,0,0,1-4.23-5.12c-2.44-4.51-3.17-9.76-3.8-14.78-.08-.6-1-.61-1,0Z"/><g class="cls-16"><path class="cls-17" d="M147.31,268.16a19.22,19.22,0,0,1-2.72-6.18,2.49,2.49,0,0,1,0-1.55.94.94,0,0,1,1.28-.51,1.47,1.47,0,0,1,.44,1.06,22.24,22.24,0,0,0,1.43,5.61c1.08-1.11,1.29-2.76,1.83-4.21s1.86-2.93,3.37-2.59a18.21,18.21,0,0,1-5,8.59c-.15.15-.36.3-.56.22s-.09-.48.09-.37"/><path class="cls-17" d="M147.75,267.91a18.46,18.46,0,0,1-1.82-3.43,18.27,18.27,0,0,1-.64-1.89,3.71,3.71,0,0,1-.28-1.82c.05-.17.22-.46.44-.44s.26.25.29.43c.14.63.18,1.28.31,1.91a22.68,22.68,0,0,0,1.19,4.05.52.52,0,0,0,.85.23c1-1.13,1.34-2.63,1.82-4.05.39-1.19,1.39-2.93,2.89-2.65l-.34-.59a17.44,17.44,0,0,1-2,4.65,16.59,16.59,0,0,1-1.41,2c-.27.34-.56.66-.85,1l-.4.41-.26.25-.11.1c-.16.11-.13.28.09.5l-.33.05h.07c.42.08.78-.56.32-.76a.6.6,0,0,0-.86.55.71.71,0,0,0,1,.64,3.94,3.94,0,0,0,1.29-1.15c.42-.46.81-.94,1.19-1.43a19.06,19.06,0,0,0,3.15-6.56.48.48,0,0,0-.34-.6c-1.66-.32-3,.93-3.7,2.33s-.8,3.33-2,4.59l.84.22a23.23,23.23,0,0,1-1.35-5.13c-.1-.65-.11-1.46-.74-1.85a1.39,1.39,0,0,0-1.68.26,2.14,2.14,0,0,0-.43,1.95,13.31,13.31,0,0,0,.66,2.34,19.65,19.65,0,0,0,2.21,4.39c.35.53,1.23,0,.87-.51Z"/></g><g class="cls-16"><path class="cls-17" d="M183.26,340.29a3.86,3.86,0,0,1-4.4,2.49c-2-.48-3.23-2.48-4.18-4.32-.36-.69-.69-1.59-.19-2.19.66-.81,2-.16,2.61.7s1.05,2,2.06,2.29,1.9-.31,2.83-.62,2.3-.1,2.43.88"/><path class="cls-17" d="M182.85,340.18a3.44,3.44,0,0,1-3.59,2.23c-1.65-.22-2.76-1.68-3.56-3a5.94,5.94,0,0,1-1-2.27c-.08-1,1-.83,1.54-.42a6.9,6.9,0,0,1,1.33,1.78,2.73,2.73,0,0,0,1.81,1.26c1,.14,1.9-.46,2.85-.72.61-.17,1.61-.16,1.79.6.13.55.89.3.82-.23a1.72,1.72,0,0,0-1.67-1.31c-1.08-.12-1.93.49-2.95.73-1.24.29-1.81-.62-2.38-1.55a3.63,3.63,0,0,0-2-1.73,1.56,1.56,0,0,0-2,1c-.29,1,.32,2,.78,2.81.9,1.66,2.17,3.41,4.11,3.87a4.3,4.3,0,0,0,4.91-2.8c.17-.51-.63-.73-.81-.22Z"/></g><path class="cls-13" d="M150.72,192.34l8.24,0a.81.81,0,0,0,.52-.19l8-6.87a.8.8,0,0,0-.52-1.41l-8.24,0a.81.81,0,0,0-.52.19l-8,6.87A.8.8,0,0,0,150.72,192.34Z"/><path class="cls-13" d="M148.35,188.43v-7.38a.81.81,0,0,1,.28-.61l8.3-7.09a.8.8,0,0,1,1.32.61v7.38a.8.8,0,0,1-.28.61l-8.3,7.09A.8.8,0,0,1,148.35,188.43Z"/><path class="cls-13" d="M150.72,194.37H159a.79.79,0,0,1,.52.2l8,6.9a.8.8,0,0,1-.53,1.4h-8.24a.79.79,0,0,1-.52-.2l-8-6.89A.8.8,0,0,1,150.72,194.37Z"/><path class="cls-13" d="M148.33,198.27v7.38a.8.8,0,0,0,.28.61l8.27,7.12a.8.8,0,0,0,1.32-.6l0-7.38a.78.78,0,0,0-.28-.61l-8.28-7.13A.8.8,0,0,0,148.33,198.27Z"/><path class="cls-13" d="M143.85,192.33h-8.24a.79.79,0,0,1-.52-.2l-8-6.9a.8.8,0,0,1,.53-1.41l8.24,0a.83.83,0,0,1,.52.19l8,6.9A.8.8,0,0,1,143.85,192.33Z"/><path class="cls-13" d="M146.24,188.43v-7.38a.78.78,0,0,0-.28-.61l-8.27-7.13a.8.8,0,0,0-1.32.61l0,7.38a.8.8,0,0,0,.28.61l8.27,7.13A.81.81,0,0,0,146.24,188.43Z"/><path class="cls-13" d="M143.85,194.36l-8.24,0a.81.81,0,0,0-.52.19l-8,6.87a.8.8,0,0,0,.52,1.41l8.24,0a.81.81,0,0,0,.52-.19l8-6.87A.8.8,0,0,0,143.85,194.36Z"/><path class="cls-13" d="M146.22,198.26v7.39a.78.78,0,0,1-.28.6l-8.3,7.1a.8.8,0,0,1-1.32-.61v-7.38a.78.78,0,0,1,.28-.61l8.3-7.1A.8.8,0,0,1,146.22,198.26Z"/></g></g></svg>