<svg xmlns="http://www.w3.org/2000/svg" xmlns:xlink="http://www.w3.org/1999/xlink" viewBox="0 0 3710 3710"><defs><style>.cls-1,.cls-38{fill:#7359c6;}.cls-1{opacity:0.1;}.cls-2{fill:url(#linear-gradient);}.cls-3{fill:url(#linear-gradient-2);}.cls-4{fill:url(#linear-gradient-3);}.cls-5{fill:url(#linear-gradient-4);}.cls-6{fill:url(#linear-gradient-5);}.cls-7{fill:url(#linear-gradient-6);}.cls-8{fill:url(#linear-gradient-7);}.cls-9{fill:url(#linear-gradient-8);}.cls-10{fill:url(#linear-gradient-9);}.cls-11{fill:url(#linear-gradient-10);}.cls-12{fill:url(#linear-gradient-11);}.cls-13{fill:url(#linear-gradient-12);}.cls-14{fill:url(#linear-gradient-13);}.cls-15{fill:url(#linear-gradient-14);}.cls-16{fill:url(#linear-gradient-15);}.cls-17{fill:url(#linear-gradient-16);}.cls-18{fill:#fff;}.cls-19{fill:url(#linear-gradient-17);}.cls-20{fill:url(#linear-gradient-18);}.cls-21{fill:url(#linear-gradient-19);}.cls-22{fill:url(#linear-gradient-20);}.cls-23{fill:url(#linear-gradient-21);}.cls-24{fill:url(#linear-gradient-22);}.cls-25{fill:url(#linear-gradient-23);}.cls-26{fill:url(#linear-gradient-24);}.cls-27{fill:url(#linear-gradient-25);}.cls-28{fill:url(#linear-gradient-26);}.cls-29{fill:url(#linear-gradient-27);}.cls-30{fill:url(#linear-gradient-28);}.cls-31{fill:url(#linear-gradient-29);}.cls-32{fill:url(#linear-gradient-30);}.cls-33{fill:url(#linear-gradient-31);}.cls-34{fill:url(#linear-gradient-32);}.cls-35{fill:url(#linear-gradient-33);}.cls-36{fill:url(#linear-gradient-34);}.cls-37{fill:url(#linear-gradient-35);}.cls-39{fill:url(#linear-gradient-36);}.cls-40{fill:url(#linear-gradient-37);}.cls-41{fill:url(#linear-gradient-38);}.cls-42{fill:url(#linear-gradient-39);}.cls-43{fill:url(#linear-gradient-40);}.cls-44{fill:url(#linear-gradient-41);}.cls-45{fill:url(#linear-gradient-42);}.cls-46{fill:url(#linear-gradient-43);}</style><linearGradient id="linear-gradient" x1="-2163.5" y1="-9947.34" x2="-2079" y2="-9947.34" gradientTransform="translate(-2397 -7779.74) rotate(168.9)" gradientUnits="userSpaceOnUse"><stop offset="0" stop-color="#febbba"/><stop offset="1" stop-color="#ff928e"/></linearGradient><linearGradient id="linear-gradient-2" x1="2005.25" y1="1461.12" x2="1663.72" y2="1511.04" gradientTransform="matrix(1, 0, 0, 1, 0, 0)" xlink:href="#linear-gradient"/><linearGradient id="linear-gradient-3" x1="2535.43" y1="472.93" x2="2021.35" y2="1567.26" gradientUnits="userSpaceOnUse"><stop offset="0" stop-color="#09005d"/><stop offset="1" stop-color="#1a0f91"/></linearGradient><linearGradient id="linear-gradient-4" x1="2918.1" y1="652.69" x2="2404.02" y2="1747.03" xlink:href="#linear-gradient-3"/><linearGradient id="linear-gradient-5" x1="1142.79" y1="1096.78" x2="1081.1" y2="911.69" gradientTransform="translate(1290.1)" xlink:href="#linear-gradient"/><linearGradient id="linear-gradient-6" x1="2288.78" y1="869.65" x2="2510.53" y2="966.06" gradientTransform="matrix(1, 0, 0, 1, 0, 0)" xlink:href="#linear-gradient"/><linearGradient id="linear-gradient-7" x1="5260.42" y1="5126.7" x2="5525.32" y2="5126.7" gradientTransform="matrix(-0.69, -0.73, -0.73, 0.69, 9787.37, 1318.79)" xlink:href="#linear-gradient-3"/><linearGradient id="linear-gradient-8" x1="2274.96" y1="901.43" x2="2496.71" y2="997.84" gradientTransform="matrix(1, 0, 0, 1, 0, 0)" xlink:href="#linear-gradient"/><linearGradient id="linear-gradient-9" x1="2176.8" y1="2772.83" x2="2181.9" y2="3259.79" gradientTransform="matrix(-1, 0, 0, 1, 4753.76, 0)" xlink:href="#linear-gradient-3"/><linearGradient id="linear-gradient-10" x1="3375.07" y1="2983.83" x2="2377.19" y2="3268.25" gradientUnits="userSpaceOnUse"><stop offset="0" stop-color="#4f52ff"/><stop offset="1" stop-color="#4042e2"/></linearGradient><linearGradient id="linear-gradient-11" x1="2069.32" y1="3112.25" x2="2146.95" y2="3112.25" gradientTransform="matrix(-1, 0, 0, 1, 4753.76, 0)" xlink:href="#linear-gradient"/><linearGradient id="linear-gradient-12" x1="1542.57" y1="2779.46" x2="1547.66" y2="3266.42" gradientTransform="matrix(-1, 0, 0, 1, 4753.76, 0)" xlink:href="#linear-gradient-3"/><linearGradient id="linear-gradient-13" x1="2818.77" y1="2926.02" x2="3440.63" y2="3330.96" xlink:href="#linear-gradient-10"/><linearGradient id="linear-gradient-14" x1="1575.81" y1="3047.54" x2="1668.59" y2="3047.54" gradientTransform="matrix(-1, 0, 0, 1, 4753.76, 0)" xlink:href="#linear-gradient"/><linearGradient id="linear-gradient-15" x1="-770.27" y1="3183.76" x2="645.35" y2="1226.59" gradientTransform="matrix(-1, 0, 0, 1, 2420.76, 0)" xlink:href="#linear-gradient-3"/><linearGradient id="linear-gradient-16" x1="2756.03" y1="2252.27" x2="2796.75" y2="2548.63" gradientUnits="userSpaceOnUse"><stop offset="0" stop-color="#fe7062"/><stop offset="1" stop-color="#ff928e"/></linearGradient><linearGradient id="linear-gradient-17" x1="302.08" y1="88.28" x2="307.17" y2="-235.81" gradientTransform="translate(1990 -609.6) rotate(-7.3)" gradientUnits="userSpaceOnUse"><stop offset="0" stop-color="#e1473d"/><stop offset="1" stop-color="#e9605a"/></linearGradient><linearGradient id="linear-gradient-18" x1="301.28" y1="88.35" x2="306.37" y2="-235.73" xlink:href="#linear-gradient-17"/><linearGradient id="linear-gradient-19" x1="560.92" y1="92.35" x2="566.01" y2="-231.74" xlink:href="#linear-gradient-17"/><linearGradient id="linear-gradient-20" x1="560.08" y1="92.42" x2="565.17" y2="-231.67" xlink:href="#linear-gradient-17"/><linearGradient id="linear-gradient-21" x1="428.84" y1="90.48" x2="433.93" y2="-233.59" xlink:href="#linear-gradient-17"/><linearGradient id="linear-gradient-22" x1="2591.6" y1="1804.88" x2="2594.99" y2="1477.41" gradientTransform="matrix(1, 0, 0, 1, 0, 0)" xlink:href="#linear-gradient"/><linearGradient id="linear-gradient-23" x1="2692.88" y1="1875.47" x2="2758.49" y2="2230.64" xlink:href="#linear-gradient-16"/><linearGradient id="linear-gradient-24" x1="2705.19" y1="2268.44" x2="2827.36" y2="2002.05" gradientTransform="matrix(1, 0, 0, 1, 0, 0)" xlink:href="#linear-gradient-17"/><linearGradient id="linear-gradient-25" x1="2808.16" y1="1904.86" x2="2714.84" y2="2323.95" xlink:href="#linear-gradient-16"/><linearGradient id="linear-gradient-26" x1="2813.18" y1="1634.39" x2="2603.1" y2="2038.39" gradientTransform="matrix(1, 0, 0, 1, 0, 0)" xlink:href="#linear-gradient"/><linearGradient id="linear-gradient-27" x1="3072.2" y1="725.08" x2="2558.12" y2="1819.41" xlink:href="#linear-gradient-3"/><linearGradient id="linear-gradient-28" x1="4252.61" y1="-373.4" x2="2921.97" y2="1131.57" xlink:href="#linear-gradient-10"/><linearGradient id="linear-gradient-29" x1="-446.86" y1="3169.18" x2="-266.08" y2="3169.18" gradientTransform="translate(1290.1)" xlink:href="#linear-gradient-3"/><linearGradient id="linear-gradient-30" x1="5.73" y1="2955.9" x2="-651.98" y2="3472.34" gradientTransform="translate(1290.1)" xlink:href="#linear-gradient-10"/><linearGradient id="linear-gradient-31" x1="-396.59" y1="2963.36" x2="-431.12" y2="3264.74" gradientTransform="translate(1290.1)" xlink:href="#linear-gradient"/><linearGradient id="linear-gradient-32" x1="122.57" y1="3104.49" x2="-535.15" y2="3620.92" gradientTransform="translate(1290.1)" xlink:href="#linear-gradient-10"/><linearGradient id="linear-gradient-33" x1="-171.57" y1="3173.77" x2="88.67" y2="3173.77" gradientTransform="translate(1290.1)" xlink:href="#linear-gradient-3"/><linearGradient id="linear-gradient-34" x1="-7.72" y1="2934.81" x2="-42.26" y2="3236.2" gradientTransform="translate(993.21 65.77) rotate(-3.61)" xlink:href="#linear-gradient"/><linearGradient id="linear-gradient-35" x1="883.98" y1="3308" x2="1139.65" y2="1436.96" xlink:href="#linear-gradient-3"/><linearGradient id="linear-gradient-36" x1="956.42" y1="1203.01" x2="1229.65" y2="898.25" gradientTransform="matrix(1, 0, 0, 1, 0, 0)" xlink:href="#linear-gradient"/><linearGradient id="linear-gradient-37" x1="1115.78" y1="982.38" x2="1248.89" y2="794.97" gradientTransform="matrix(1, 0, 0, 1, 0, 0)" xlink:href="#linear-gradient"/><linearGradient id="linear-gradient-38" x1="961.43" y1="664.98" x2="1159.73" y2="897.24" xlink:href="#linear-gradient-3"/><linearGradient id="linear-gradient-39" x1="1064.21" y1="945.75" x2="1197.32" y2="758.35" gradientTransform="matrix(1, 0, 0, 1, 0, 0)" xlink:href="#linear-gradient"/><linearGradient id="linear-gradient-40" x1="1772.58" y1="1168.4" x2="1268.04" y2="1419.38" gradientTransform="matrix(1, 0, 0, 1, 0, 0)" xlink:href="#linear-gradient"/><linearGradient id="linear-gradient-41" x1="1765.19" y1="1105.45" x2="1592.61" y2="1285.7" gradientTransform="matrix(1, 0, 0, 1, 0, 0)" xlink:href="#linear-gradient"/><linearGradient id="linear-gradient-42" x1="1774.98" y1="1165.43" x2="1270.44" y2="1416.41" gradientTransform="matrix(1, 0, 0, 1, 0, 0)" xlink:href="#linear-gradient"/><linearGradient id="linear-gradient-43" x1="1596.96" y1="1585.13" x2="958.55" y2="1335.55" gradientTransform="matrix(1, 0, 0, 1, 0, 0)" xlink:href="#linear-gradient"/></defs><title>SHAKEHAND</title><g id="Illustration"><path class="cls-1" d="M2936.13,2855.26c-56.9,59.9-110.74,98.53-153.28,129-500,358.77-1091.68,254.19-1217.42,228.65-185.69-37.71-544.61-110.61-804.11-415.77C368.73,2335.5,429.86,1608.13,734.38,1128c55.71-87.83,349.94-575.29,948-653.46,361.92-47.31,783.81,48.11,1089.32,304.07C3413,1315.89,3367.33,2401.3,2936.13,2855.26Z"/><path class="cls-2" d="M1642.2,1566.43s-58.1-38.11-66.15-29.33c-2.86,3.13-9.55,13.76-15.78,25.36a21.32,21.32,0,0,0,3.42,24.93l15,15.49c14.27,14.75,38.43,13.69,51-2.51C1636.05,1592.19,1641.11,1581.17,1642.2,1566.43Z"/><path class="cls-3" d="M1701.44,1494s-19.94-52.49-43.23-47.68-48.77,22.7-48.77,22.7l-37.42,50.6s105,41.38,142,17.67c0,0,107.29,18.54,242.77-3.69-19.61-41.41-31.3-82.86-38.16-115C1850,1457.42,1776.08,1486.43,1701.44,1494Z"/><path class="cls-4" d="M2269.75,1113.29s-153.6,193.47-351.14,305.29c6.86,32.18,18.55,73.63,38.16,115,102.48-16.82,221.08-56.95,321.62-146.12Z"/><path class="cls-5" d="M2461.32,1970.81c-30-142.69-60.08-225.3-160.66-495.77-31.66-85.11-60.4-171.22-46.51-261l15.6-100.79s195.48-66.15,412.16-2.79c0,0,295.62,128.43,94.83,762.68C2686.23,1974.44,2580.31,2003.29,2461.32,1970.81Z"/><path class="cls-6" d="M2303,984.66l50.69,121.77a24.27,24.27,0,0,0,18.33,14.58c29.22,5,99.9,12.84,146.32-17.68a11.81,11.81,0,0,0,3.16-16.59L2427.88,952.3Z"/><path class="cls-7" d="M2355.45,798.35c-2.13,2-89.84,174.25-89.84,174.25l99.41,48,107.39-150.9S2391.09,764.8,2355.45,798.35Z"/><path class="cls-8" d="M2427.23,887.79l-49.58,82.66a15.53,15.53,0,0,1-2.72,3.38c-5.9,5.49-26.1,21.47-41.71-.28-13.31-18.55-25.79-35.4-39.17-42.36a15.85,15.85,0,0,0-21.39,7c-8.17,16.19-24,49.19-33.93,80.49a15.78,15.78,0,0,0,9.18,19.36c20.13,8.15,59.92,22.9,95.22,27.77a15.84,15.84,0,0,0,15-6.37c15.19-20.81,58-79,72.62-93.51,13.57-13.53,38.62-8.43,49.91-5.19a15.91,15.91,0,0,0,12.67-1.66c11.45-6.9,31.44-24.08,13.16-53.16a15.87,15.87,0,0,1,4.9-21.56c12.79-8.41,26.67-24.2,13.45-49.77-13.39-25.89-37.28-28.21-53.56-26.22-7.2.88-14.52-2.9-17.28-9.61a10.48,10.48,0,0,0-8.18-6.44c-8.53-1.74-14.13-9.54-12.46-18.08,2.87-14.65.71-33.68-22.68-46.53-42.89-23.59-80.46,14.84-90,47.28s38.41,55.36,68.58,59.19c22.15,2.81,34.3,27,39.19,39.64A15.85,15.85,0,0,1,2427.23,887.79Z"/><path class="cls-9" d="M2409.85,990.72s21.34-50.2,45.75-48.15,43.63,26.37,13.37,53.71C2431.34,1030.29,2409.85,990.72,2409.85,990.72Z"/><path class="cls-10" d="M2442.08,3228.34c47.21,4.08,129.15,10.71,193.74,13.55,38.83,1.71,61.19-2.09,74.06-7.24,0,1.45-.06,2.82-.12,4.09a13.35,13.35,0,0,1-12.69,12.62c-122.06,6.81-219.13,2.36-253.69.26a9.52,9.52,0,0,1-7.75-14.3A77.9,77.9,0,0,1,2442.08,3228.34Z"/><path class="cls-11" d="M2635.82,3241.89c-64.59-2.84-146.53-9.47-193.74-13.55,46.41-57,193.74-95.33,193.74-95.33h41.61c28.62,41.25,32.76,80.53,32.45,101.64C2697,3239.8,2674.65,3243.6,2635.82,3241.89Z"/><path class="cls-12" d="M2684.44,3065.08l-3.9,77.05a17.58,17.58,0,0,1-15,16.55,68.32,68.32,0,0,1-31.26-2.59,20.8,20.8,0,0,1-14-16l-13.46-75Z"/><path class="cls-13" d="M3224.9,3241.32c20.47-2.86,29.73-13.5,33.62-24.87a2.81,2.81,0,0,0,.08.31c3,12-4,24.42-17.94,30.34-16.87,7.14-35.32,8.36-49.64,7.77-15.37-.63-29.47-7-37.23-17.17l-.11-.15C3169.1,3245.18,3190.75,3246.08,3224.9,3241.32Z"/><path class="cls-14" d="M3128.37,3064.58h34.31c52.27-1.06,85.09,109.18,95.84,151.87-3.89,11.37-13.15,22-33.62,24.87-34.15,4.76-55.8,3.86-71.22-3.77-28.24-37.16-42.24-91.59-49-123.35C3097.06,3078.08,3128.37,3064.58,3128.37,3064.58Z"/><path class="cls-15" d="M3158.27,2993.07l19.06,75.78a20.56,20.56,0,0,1-10.71,23.31c-10.66,5.48-25.66,11.22-39.45,9.56a17.18,17.18,0,0,1-14-11.46l-28-79.73Z"/><path class="cls-16" d="M3181,3015c-23.71,21-100.82,23.81-100.82,23.81-277.76-666.66-393.56-850.19-393.56-850.19,40.11,251.63,8.64,897.52,8.64,897.52-45.83,20.22-104.93,0-104.93,0-3.72-412-61.72-854.6-136.52-1137.83,187.74-4.22,289.76-45.15,322.36-70.93C2932.66,2129.64,3181,3015,3181,3015Z"/><path class="cls-17" d="M2406.52,2134.57l34.54,214.86a70.76,70.76,0,0,0,78.57,58.83l517-63.06a51.07,51.07,0,0,0,45-49.56c1.1-55.52-1.08-154.32-24.38-244.34Z"/><path class="cls-18" d="M2530.47,2394.12a1.16,1.16,0,0,1-.14-2.32l9.25-1.13a1.13,1.13,0,0,1,1.3,1,1.17,1.17,0,0,1-1,1.3l-9.26,1.13Zm-21.65-.69a.9.9,0,0,1-.23,0,67.73,67.73,0,0,1-9.14-2.45,1.16,1.16,0,1,1,.75-2.2,66.62,66.62,0,0,0,8.84,2.36,1.18,1.18,0,0,1,.92,1.37A1.16,1.16,0,0,1,2508.82,2393.43Zm52.5-3.07a1.18,1.18,0,0,1-1.16-1,1.17,1.17,0,0,1,1-1.3l9.25-1.13a1.14,1.14,0,0,1,1.3,1,1.17,1.17,0,0,1-1,1.3l-9.26,1.13Zm30.85-3.77a1.16,1.16,0,0,1-.14-2.32l9.26-1.13a1.15,1.15,0,0,1,1.3,1,1.16,1.16,0,0,1-1,1.29l-9.25,1.13Zm30.86-3.76a1.16,1.16,0,0,1-.15-2.32l9.26-1.13a1.15,1.15,0,0,1,1.3,1,1.17,1.17,0,0,1-1,1.3l-9.25,1.13Zm-142.29-2a1.17,1.17,0,0,1-.71-.24,68,68,0,0,1-7.11-6.26,1.16,1.16,0,0,1,1.65-1.64,66.67,66.67,0,0,0,6.87,6,1.16,1.16,0,0,1-.7,2.09Zm173.14-1.72a1.17,1.17,0,0,1-.14-2.33l9.25-1.13a1.14,1.14,0,0,1,1.3,1,1.17,1.17,0,0,1-1,1.3l-9.26,1.13Zm30.85-3.77a1.16,1.16,0,0,1-.14-2.32l9.25-1.13a1.14,1.14,0,0,1,1.3,1,1.16,1.16,0,0,1-1,1.29l-9.26,1.13Zm30.85-3.76a1.17,1.17,0,0,1-1.15-1,1.15,1.15,0,0,1,1-1.29l9.26-1.13a1.13,1.13,0,0,1,1.29,1,1.16,1.16,0,0,1-1,1.3l-9.25,1.13Zm30.86-3.76a1.17,1.17,0,0,1-.15-2.33l9.26-1.13a1.15,1.15,0,0,1,1.3,1,1.17,1.17,0,0,1-1,1.3l-9.25,1.13Zm30.85-3.77a1.16,1.16,0,0,1-.14-2.32l9.25-1.13a1.14,1.14,0,0,1,1.3,1,1.15,1.15,0,0,1-1,1.29l-9.26,1.13Zm30.85-3.76a1.17,1.17,0,0,1-1.16-1,1.16,1.16,0,0,1,1-1.29l9.25-1.13a1.14,1.14,0,0,1,1.3,1,1.17,1.17,0,0,1-1,1.3l-9.26,1.13ZM2461.19,2357a1.15,1.15,0,0,1-1-.66,66.25,66.25,0,0,1-3.56-8.79,1.16,1.16,0,0,1,.74-1.47,1.18,1.18,0,0,1,1.47.75,66.43,66.43,0,0,0,3.44,8.49,1.18,1.18,0,0,1-.53,1.56A1.2,1.2,0,0,1,2461.19,2357Zm377.81-.5a1.17,1.17,0,0,1-.15-2.33l9.26-1.13a1.15,1.15,0,0,1,1.3,1,1.17,1.17,0,0,1-1,1.3l-9.25,1.13Zm30.85-3.77a1.16,1.16,0,0,1-.14-2.32l9.25-1.13a1.15,1.15,0,0,1,1.3,1,1.16,1.16,0,0,1-1,1.29l-9.26,1.13Zm30.85-3.76a1.17,1.17,0,0,1-1.16-1,1.15,1.15,0,0,1,1-1.29l9.25-1.13a1.14,1.14,0,0,1,1.3,1,1.16,1.16,0,0,1-1,1.3l-9.26,1.13Zm30.85-3.76a1.17,1.17,0,0,1-.14-2.33l9.26-1.12a1.13,1.13,0,0,1,1.3,1,1.18,1.18,0,0,1-1,1.3l-9.25,1.13Zm30.86-3.77a1.16,1.16,0,0,1-.15-2.32l9.26-1.13a1.15,1.15,0,0,1,1.3,1,1.17,1.17,0,0,1-1,1.3l-9.25,1.12Zm30.85-3.76a1.16,1.16,0,0,1-.14-2.32l9.25-1.13a1.15,1.15,0,0,1,1.3,1,1.17,1.17,0,0,1-1,1.3l-9.26,1.13Zm30.84-3.81a1.16,1.16,0,0,1-.19-2.31,48.82,48.82,0,0,0,8.79-2.32,1.16,1.16,0,1,1,.81,2.18,50.09,50.09,0,0,1-9.22,2.44ZM2453.45,2327a1.17,1.17,0,0,1-1.15-1l-1.48-9.21a1.16,1.16,0,0,1,1-1.33,1.15,1.15,0,0,1,1.33,1l1.48,9.21a1.16,1.16,0,0,1-1,1.33Zm597.73-7.33a1.15,1.15,0,0,1-.83-2,47.86,47.86,0,0,0,5.67-7.1,1.17,1.17,0,1,1,1.95,1.28,49.53,49.53,0,0,1-5.95,7.44A1.14,1.14,0,0,1,3051.18,2319.71Zm-602.66-23.36a1.16,1.16,0,0,1-1.15-1l-1.48-9.2a1.16,1.16,0,1,1,2.3-.37l1.48,9.2a1.17,1.17,0,0,1-1,1.34Zm615.95-4.14h-.15a1.18,1.18,0,0,1-1-1.31,45.16,45.16,0,0,0,.38-5.1l.07-4.08a1.17,1.17,0,0,1,1.17-1.14h0a1.17,1.17,0,0,1,1.15,1.18l-.08,4.09a52.4,52.4,0,0,1-.39,5.35A1.16,1.16,0,0,1,3064.47,2292.21Zm-620.89-26.55a1.16,1.16,0,0,1-1.15-1l-1.48-9.2a1.17,1.17,0,0,1,1-1.34,1.15,1.15,0,0,1,1.33,1l1.48,9.2a1.17,1.17,0,0,1-1,1.34Zm621.49-4.51a1.16,1.16,0,0,1-1.17-1.16q0-4.54-.07-9.32a1.16,1.16,0,0,1,1.15-1.18h0a1.17,1.17,0,0,1,1.17,1.15c0,3.19.06,6.31.07,9.34a1.16,1.16,0,0,1-1.16,1.17ZM2438.65,2235a1.17,1.17,0,0,1-1.15-1l-1.48-9.21a1.16,1.16,0,0,1,1-1.33,1.14,1.14,0,0,1,1.34,1l1.48,9.21a1.16,1.16,0,0,1-1,1.33Zm625.87-4.91a1.17,1.17,0,0,1-1.17-1.13q-.15-4.59-.33-9.32a1.16,1.16,0,0,1,1.12-1.21h0a1.17,1.17,0,0,1,1.17,1.12c.12,3.16.24,6.27.33,9.33a1.17,1.17,0,0,1-1.13,1.21Zm-630.8-25.78a1.16,1.16,0,0,1-1.15-1l-1.49-9.21a1.16,1.16,0,0,1,1-1.33,1.13,1.13,0,0,1,1.33,1l1.49,9.21a1.17,1.17,0,0,1-1,1.34Zm629.36-5.28a1.17,1.17,0,0,1-1.17-1.1q-.28-4.6-.61-9.3a1.17,1.17,0,0,1,1.09-1.24,1.15,1.15,0,0,1,1.24,1.09c.21,3.13.42,6.23.61,9.31a1.17,1.17,0,0,1-1.09,1.24Zm-634.3-25.41a1.17,1.17,0,0,1-1.15-1l-1.48-9.2a1.17,1.17,0,0,1,1-1.34,1.15,1.15,0,0,1,1.34,1l1.48,9.21a1.17,1.17,0,0,1-1,1.34Zm631.91-5.59a1.17,1.17,0,0,1-1.16-1.06c-.29-3.07-.59-6.16-.92-9.27a1.17,1.17,0,0,1,2.32-.24c.33,3.11.63,6.21.92,9.29a1.17,1.17,0,0,1-1,1.27Zm-636.84-25.09a1.16,1.16,0,0,1-1.15-1l-1.48-9.21a1.15,1.15,0,0,1,1-1.34,1.17,1.17,0,0,1,1.34,1l1.48,9.2a1.17,1.17,0,0,1-1,1.34Zm633.41-5.81a1.16,1.16,0,0,1-1.15-1c-.4-3.06-.81-6.14-1.25-9.23a1.17,1.17,0,0,1,1-1.31,1.14,1.14,0,0,1,1.32,1q.64,4.64,1.25,9.26a1.17,1.17,0,0,1-1,1.3Zm-619.63-5.36a1.15,1.15,0,0,1-1.15-1,1.17,1.17,0,0,1,1-1.31l9.25-1.18a1.13,1.13,0,0,1,1.31,1,1.16,1.16,0,0,1-1,1.3l-9.25,1.19Zm30.83-3.94a1.17,1.17,0,0,1-.15-2.32l9.25-1.18a1.14,1.14,0,0,1,1.31,1,1.17,1.17,0,0,1-1,1.31l-9.25,1.18Zm30.83-3.94a1.17,1.17,0,0,1-.15-2.33l9.25-1.18a1.12,1.12,0,0,1,1.31,1,1.16,1.16,0,0,1-1,1.3l-9.25,1.19Zm30.83-3.95a1.17,1.17,0,0,1-1.16-1,1.16,1.16,0,0,1,1-1.3l9.25-1.19a1.13,1.13,0,0,1,1.31,1,1.18,1.18,0,0,1-1,1.31l-9.25,1.18ZM2561,2116a1.17,1.17,0,0,1-.15-2.33l9.25-1.18a1.12,1.12,0,0,1,1.31,1,1.16,1.16,0,0,1-1,1.3l-9.25,1.19Zm30.83-3.95a1.17,1.17,0,0,1-.15-2.32l9.25-1.19a1.13,1.13,0,0,1,1.31,1,1.18,1.18,0,0,1-1,1.31l-9.25,1.18Zm30.83-3.94a1.17,1.17,0,0,1-.15-2.33l9.25-1.18a1.13,1.13,0,0,1,1.31,1,1.16,1.16,0,0,1-1,1.3l-9.25,1.19Zm430.07-1.72a1.16,1.16,0,0,1-1.15-1q-.78-4.58-1.63-9.16a1.17,1.17,0,1,1,2.3-.42c.56,3.06,1.1,6.13,1.63,9.19a1.18,1.18,0,0,1-1,1.35Zm-399.24-2.23a1.16,1.16,0,0,1-.15-2.32l9.25-1.19a1.16,1.16,0,0,1,1.31,1,1.18,1.18,0,0,1-1,1.31l-9.25,1.18Zm30.83-3.94a1.16,1.16,0,0,1-1.15-1,1.17,1.17,0,0,1,1-1.31l9.25-1.18a1.16,1.16,0,1,1,.3,2.31l-9.25,1.19Zm30.83-3.95a1.17,1.17,0,0,1-.15-2.32l9.25-1.19a1.15,1.15,0,0,1,1.31,1,1.18,1.18,0,0,1-1,1.31l-9.25,1.18Zm30.83-3.95a1.16,1.16,0,0,1-1.16-1,1.18,1.18,0,0,1,1-1.31l9.25-1.18a1.15,1.15,0,0,1,1.31,1,1.16,1.16,0,0,1-1,1.3l-9.25,1.19Zm30.83-3.94a1.16,1.16,0,0,1-.15-2.32l9.25-1.19a1.13,1.13,0,0,1,1.31,1,1.17,1.17,0,0,1-1,1.31l-9.25,1.18Zm30.83-3.94a1.17,1.17,0,0,1-.15-2.33l9.25-1.18a1.15,1.15,0,0,1,1.31,1,1.16,1.16,0,0,1-1,1.3l-9.25,1.19Zm30.83-4a1.17,1.17,0,0,1-.15-2.32l9.25-1.19a1.14,1.14,0,0,1,1.31,1,1.18,1.18,0,0,1-1,1.31l-9.25,1.18Zm30.83-3.95a1.16,1.16,0,0,1-1.15-1,1.17,1.17,0,0,1,1-1.31l9.25-1.18a1.12,1.12,0,0,1,1.31,1,1.16,1.16,0,0,1-1,1.3l-9.25,1.19Zm177.51-.66a1.17,1.17,0,0,1-1.14-.91c-.66-3-1.35-6.06-2.06-9.08a1.17,1.17,0,1,1,2.27-.54c.72,3,1.4,6.07,2.07,9.12a1.17,1.17,0,0,1-.89,1.39Zm-146.68-3.28a1.16,1.16,0,0,1-.15-2.32l9.25-1.19a1.14,1.14,0,0,1,1.31,1,1.18,1.18,0,0,1-1,1.31l-9.25,1.18Zm30.83-3.95a1.17,1.17,0,0,1-.15-2.32l9.25-1.18a1.12,1.12,0,0,1,1.31,1,1.17,1.17,0,0,1-1,1.3l-9.25,1.19Zm30.83-3.94a1.17,1.17,0,0,1-.15-2.32l9.25-1.19a1.12,1.12,0,0,1,1.31,1,1.18,1.18,0,0,1-1,1.31l-9.25,1.18Zm30.83-4a1.17,1.17,0,0,1-.15-2.32l9.25-1.18a1.12,1.12,0,0,1,1.31,1,1.16,1.16,0,0,1-1,1.3l-9.25,1.18Zm30.83-3.94a1.16,1.16,0,0,1-.15-2.32l9.25-1.19a1.13,1.13,0,0,1,1.31,1,1.18,1.18,0,0,1-1,1.31l-9.25,1.18Z"/><path class="cls-19" d="M2537.88,1958.58l-.57-16.84a12.89,12.89,0,0,1,8.74-8.71c15.77-4.62,55.11-14.23,76.17-2.33l5.35,19Z"/><path class="cls-20" d="M2586.11,1936.13a23.23,23.23,0,0,1-11.14,1.42,10.14,10.14,0,0,1-8.92-8.77l-6.66-52.1,26.51-3.39,6.66,52.06A10.17,10.17,0,0,1,2586.11,1936.13Z"/><path class="cls-21" d="M2794.69,1925.72l-.57-16.84a12.88,12.88,0,0,1,8.75-8.71c15.76-4.62,55.1-14.24,76.16-2.33l5.35,19Z"/><path class="cls-22" d="M2842.92,1903.27a23.22,23.22,0,0,1-11.14,1.41,10.14,10.14,0,0,1-8.92-8.76l-7.37-57.59,26.52-3.39,7.36,57.55A10.16,10.16,0,0,1,2842.92,1903.27Z"/><path class="cls-23" d="M2558.33,1889.8l283.93-45.93a13.85,13.85,0,0,0,11.69-13c.42-9.13.09-22.67-3.74-36.26a33.16,33.16,0,0,0-35.44-23.76c-53.35,5.54-188.77,22.91-259.62,62a26.26,26.26,0,0,0-13.44,20.1c-.9,8.08-.83,18.71,3,29A12.38,12.38,0,0,0,2558.33,1889.8Z"/><path class="cls-24" d="M2551.33,1877.46a3.1,3.1,0,0,1-3-2.4,69.55,69.55,0,0,1-1.08-22.38,25.84,25.84,0,0,1,15.18-20c15.37-6.73,44.88-18.6,69.79-22.5a3.11,3.11,0,1,1,1,6.14c-24.22,3.79-53.16,15.45-68.26,22.05a19.57,19.57,0,0,0-11.51,15.12,64,64,0,0,0,1,20.12,3.1,3.1,0,0,1-2.32,3.73A2.92,2.92,0,0,1,2551.33,1877.46Z"/><path class="cls-25" d="M2404.76,1969c92-13,489.94-68.14,607.49-69a23.77,23.77,0,0,1,22.59,15.66c10.8,30,33.75,100.12,41.23,171.54a20.8,20.8,0,0,1-14.37,21.84l-257.85,83.8-93.86,12-288.71-19.94a22.2,22.2,0,0,1-20.37-18.16c-6.41-35.59-20-119.28-17.26-174.63A24.57,24.57,0,0,1,2404.76,1969Z"/><path class="cls-18" d="M2709.32,2183h-.08l-9.3-.64a1.17,1.17,0,0,1-1.09-1.25,1.23,1.23,0,0,1,1.25-1.08l9.3.64h0a1.11,1.11,0,0,1,.26-.07l9.25-1.18a1.13,1.13,0,0,1,1.31,1,1.17,1.17,0,0,1-1,1.3l-9.25,1.18a1.26,1.26,0,0,1-.27,0A1.14,1.14,0,0,1,2709.32,2183Zm-31-2.14h-.08l-9.3-.64a1.17,1.17,0,0,1-1.08-1.25,1.2,1.2,0,0,1,1.24-1.08l9.3.64a1.17,1.17,0,0,1-.08,2.33Zm62.37-1.87a1.17,1.17,0,0,1-1.16-1,1.16,1.16,0,0,1,1-1.3l9.25-1.19a1.12,1.12,0,0,1,1.3,1,1.17,1.17,0,0,1-1,1.31l-9.25,1.18Zm-93.38-.27h-.08l-9.3-.64a1.17,1.17,0,0,1-1.08-1.25,1.19,1.19,0,0,1,1.24-1.08l9.3.64a1.17,1.17,0,0,1-.08,2.33Zm-31-2.14h-.08l-9.3-.65a1.17,1.17,0,0,1-1.09-1.24,1.19,1.19,0,0,1,1.25-1.08l9.3.64a1.17,1.17,0,0,1-.08,2.33Zm155.21-1.53a1.17,1.17,0,0,1-.15-2.33l9.25-1.18a1.12,1.12,0,0,1,1.3,1,1.15,1.15,0,0,1-1,1.3l-9.25,1.19Zm-186.22-.61h-.08l-9.3-.64a1.16,1.16,0,1,1,.16-2.32l9.3.64a1.17,1.17,0,0,1-.08,2.33Zm-31-2.14h-.08l-9.3-.64a1.17,1.17,0,0,1,.16-2.33l9.3.65a1.17,1.17,0,0,1-.08,2.33Zm247.91-1.85a1.16,1.16,0,0,1-.36-2.27l8.87-2.89a1.18,1.18,0,0,1,1.47.75,1.17,1.17,0,0,1-.75,1.47l-8.86,2.89A1.57,1.57,0,0,1,2802.19,2170.44Zm-278.92-.3h-.08l-9.3-.64a1.17,1.17,0,0,1,.16-2.33l9.3.65a1.16,1.16,0,0,1-.08,2.32Zm-31-2.14h-.08l-9.31-.64a1.17,1.17,0,0,1-1.08-1.24A1.24,1.24,0,0,1,2483,2165l9.31.64a1.18,1.18,0,0,1,1.08,1.25A1.16,1.16,0,0,1,2492.27,2168Zm-31-2.14h-.08l-9.3-.64a1.17,1.17,0,0,1-1.09-1.25,1.22,1.22,0,0,1,1.24-1.08l9.31.64a1.18,1.18,0,0,1,1.08,1.25A1.16,1.16,0,0,1,2461.26,2165.86Zm-31-2.14h-.08l-7.76-.54-.6-3.3a1.17,1.17,0,0,1,2.3-.42l.27,1.52,5.95.41a1.17,1.17,0,0,1-.08,2.33Zm401.5-2.88a1.17,1.17,0,0,1-.36-2.28l8.87-2.88a1.16,1.16,0,1,1,.72,2.21l-8.86,2.89A1.19,1.19,0,0,1,2831.75,2160.84Zm29.56-9.61a1.17,1.17,0,0,1-.36-2.28l8.87-2.88a1.17,1.17,0,0,1,.72,2.22l-8.87,2.88A1.13,1.13,0,0,1,2861.31,2151.23Zm29.56-9.61a1.16,1.16,0,0,1-.36-2.27l8.87-2.89a1.17,1.17,0,0,1,.72,2.22l-8.87,2.88A1.13,1.13,0,0,1,2890.87,2141.62Zm-471.56-2.25a1.17,1.17,0,0,1-1.15-1q-.72-4.44-1.47-9.23a1.16,1.16,0,1,1,2.3-.36c.5,3.18,1,6.26,1.47,9.21a1.17,1.17,0,0,1-1,1.34Zm501.12-7.36a1.16,1.16,0,0,1-.36-2.27l8.87-2.88a1.16,1.16,0,1,1,.72,2.21l-8.87,2.89A1.49,1.49,0,0,1,2920.43,2132Zm29.56-9.6a1.17,1.17,0,0,1-.36-2.28l8.87-2.88a1.17,1.17,0,0,1,.72,2.22l-8.87,2.88A1.13,1.13,0,0,1,2950,2122.41Zm29.56-9.61a1.17,1.17,0,0,1-.36-2.28l8.87-2.88a1.17,1.17,0,0,1,.72,2.22l-8.87,2.88A1.13,1.13,0,0,1,2979.55,2112.8Zm-564.9-4.19a1.16,1.16,0,0,1-1.15-1c-.42-3-.85-6.12-1.26-9.25a1.17,1.17,0,0,1,2.31-.31c.42,3.13.83,6.21,1.26,9.24a1.17,1.17,0,0,1-1,1.32Zm594.46-5.42a1.16,1.16,0,0,1-.36-2.27l8.87-2.89a1.19,1.19,0,0,1,1.47.75,1.17,1.17,0,0,1-.75,1.47l-8.87,2.88A1.13,1.13,0,0,1,3009.11,2103.19Zm29.56-9.61a1.16,1.16,0,0,1-.36-2.27l8.87-2.88a1.16,1.16,0,0,1,.72,2.21l-8.87,2.89A1.49,1.49,0,0,1,3038.67,2093.58Zm-627.92-15.83a1.17,1.17,0,0,1-1.16-1c-.34-3.08-.68-6.18-1-9.29a1.17,1.17,0,1,1,2.32-.23c.32,3.09.66,6.18,1,9.26a1.17,1.17,0,0,1-1,1.29Zm640.31-4.69a1.16,1.16,0,0,1-1.15-1c-.43-3.07-.9-6.14-1.38-9.2a1.17,1.17,0,0,1,1-1.33,1.15,1.15,0,0,1,1.33,1q.74,4.61,1.39,9.24a1.17,1.17,0,0,1-1,1.31Zm-643.25-26.27a1.15,1.15,0,0,1-1.16-1.07q-.36-4.7-.64-9.33a1.16,1.16,0,0,1,1.09-1.23,1.1,1.1,0,0,1,1.24,1.09q.28,4.62.63,9.29a1.16,1.16,0,0,1-1.07,1.25Zm638.1-4.37a1.17,1.17,0,0,1-1.15-.94c-.59-3.07-1.21-6.11-1.84-9.13a1.16,1.16,0,0,1,2.28-.48c.64,3,1.25,6.09,1.85,9.17a1.16,1.16,0,0,1-.92,1.36A.86.86,0,0,1,3045.91,2042.42Zm-639.62-26.69a1.17,1.17,0,0,1-1.17-1.14q-.06-3.37,0-6.66v-2.69a1.15,1.15,0,0,1,1.16-1.16,1.14,1.14,0,0,1,1.17,1.17v2.68c0,2.18,0,4.38.06,6.62a1.17,1.17,0,0,1-1.15,1.18Zm633-3.69a1.16,1.16,0,0,1-1.13-.9c-.74-3.05-1.48-6.07-2.23-9a1.17,1.17,0,0,1,.85-1.42,1.15,1.15,0,0,1,1.41.85c.75,3,1.5,6,2.23,9.07a1.16,1.16,0,0,1-.86,1.4A.84.84,0,0,1,3039.3,2012Zm-623.85-20.17a1.17,1.17,0,0,1-.17-2.32l9.24-1.3a1.16,1.16,0,0,1,1.32,1,1.17,1.17,0,0,1-1,1.32l-9.24,1.3Zm30.8-4.3a1.17,1.17,0,0,1-.16-2.32l9.24-1.28a1.18,1.18,0,0,1,1.31,1,1.15,1.15,0,0,1-1,1.31l-9.25,1.28Zm30.8-4.25a1.17,1.17,0,0,1-.16-2.32l9.24-1.26a1.15,1.15,0,0,1,1.32,1,1.17,1.17,0,0,1-1,1.31l-9.24,1.26Zm554.42-1.38a1.16,1.16,0,0,1-1.12-.85c-.85-3.06-1.71-6-2.56-9a1.17,1.17,0,0,1,2.24-.65c.85,2.92,1.71,5.92,2.57,9a1.16,1.16,0,0,1-1.13,1.48Zm-523.61-2.81a1.17,1.17,0,0,1-.16-2.32l9.25-1.25a1.16,1.16,0,0,1,1.31,1,1.17,1.17,0,0,1-1,1.32l-9.24,1.25Zm30.82-4.15a1.17,1.17,0,0,1-.16-2.33l9.25-1.23a1.19,1.19,0,0,1,1.31,1,1.18,1.18,0,0,1-1,1.31l-9.24,1.23Zm30.82-4.1a1.17,1.17,0,0,1-1.16-1,1.16,1.16,0,0,1,1-1.3l9.25-1.23a1.16,1.16,0,0,1,.3,2.31l-9.25,1.22Zm30.82-4.05a1.17,1.17,0,0,1-1.16-1,1.16,1.16,0,0,1,1-1.3l9.25-1.21a1.19,1.19,0,0,1,1.31,1,1.17,1.17,0,0,1-1,1.3l-9.25,1.21Zm30.83-4a1.16,1.16,0,0,1-.15-2.32l9.22-1.18a1.23,1.23,0,0,1,1.25,1.16,1.09,1.09,0,0,1-1.07,1.16l-9.1,1.17Zm30.83-3.93a1.17,1.17,0,0,1-1.16-1,1.16,1.16,0,0,1,1-1.3l9.25-1.17a1.15,1.15,0,0,1,1.31,1,1.17,1.17,0,0,1-1,1.3l-9.25,1.17Zm30.84-3.87a1.16,1.16,0,0,1-.14-2.32l9.26-1.15a1.15,1.15,0,0,1,1.3,1,1.18,1.18,0,0,1-1,1.3L2693,1955Zm329.73-2.88a1.15,1.15,0,0,1-1.11-.81c-1-3.11-2-6.07-2.88-8.86a1.16,1.16,0,0,1,2.21-.73c.93,2.8,1.9,5.77,2.89,8.89a1.17,1.17,0,0,1-.76,1.46A1.1,1.1,0,0,1,3022.55,1952.15Zm-298.88-.91a1.16,1.16,0,0,1-.14-2.32l9.26-1.12a1.14,1.14,0,0,1,1.29,1,1.16,1.16,0,0,1-1,1.3l-9.26,1.12Zm30.86-3.71a1.16,1.16,0,0,1-.14-2.32l9.26-1.1a1.17,1.17,0,0,1,.28,2.32l-9.26,1.09Zm30.88-3.61a1.17,1.17,0,0,1-.14-2.33l9.27-1.06a1.14,1.14,0,0,1,1.29,1,1.17,1.17,0,0,1-1,1.29l-9.26,1.06Zm30.88-3.5a1.17,1.17,0,0,1-.13-2.33l9.28-1a1.13,1.13,0,0,1,1.28,1,1.16,1.16,0,0,1-1,1.28l-9.27,1Zm30.9-3.37a1.17,1.17,0,0,1-.12-2.33l9.27-1a1.17,1.17,0,1,1,.25,2.32l-9.27,1Zm30.92-3.21a1.16,1.16,0,0,1-.12-2.32l9.29-.92a1.16,1.16,0,0,1,1.27,1,1.18,1.18,0,0,1-1.05,1.28l-9.27.92Zm30.94-3a1.16,1.16,0,0,1-.11-2.32l9.29-.85a1.16,1.16,0,0,1,.21,2.32l-9.29.85Zm31-2.7a1.17,1.17,0,0,1-.09-2.33l9.3-.74a1.17,1.17,0,0,1,.18,2.33l-9.29.73Zm31-2.28a1.17,1.17,0,0,1-.08-2.33q4.82-.3,9.32-.56a1.1,1.1,0,0,1,1.23,1.1,1.18,1.18,0,0,1-1.1,1.23c-3,.17-6.1.35-9.3.56Zm31-1.52a1.17,1.17,0,0,1-1.17-1.13,1.16,1.16,0,0,1,1.13-1.2c3.32-.1,6.43-.16,9.35-.19h0a1.17,1.17,0,0,1,0,2.33q-4.35,0-9.3.19Z"/><path class="cls-26" d="M2800.06,2233.41l-82.23,10.52a21.42,21.42,0,0,1-23.52-16l-19.62-77.91a21.39,21.39,0,0,1,18.09-26.4l98.79-12.64a21.39,21.39,0,0,1,24.14,20.34l3.08,80A21.43,21.43,0,0,1,2800.06,2233.41Z"/><path class="cls-27" d="M2788.08,2220.15l-62.58,8a16.3,16.3,0,0,1-17.9-12.15l-14.94-59.3a16.28,16.28,0,0,1,13.77-20.09l75.19-9.62a16.28,16.28,0,0,1,18.38,15.48l2.34,60.91A16.31,16.31,0,0,1,2788.08,2220.15Z"/><path class="cls-28" d="M2739.17,1589.58c19.4,80.15,19.91,158.56,17,187.1a22.23,22.23,0,0,1-20.56,19.93c-12.26.86-28.94,2-43.86,2.84-16.39,1-34.58-9.41-46.75-18.07-6.21-4.42-14.25,2.46-10.78,9.25,6,11.69,16.36,20.9,26.66,28.73,6.2,4.71,26.81,13.08,25.37,22.35-.46,2.93-2.22,5.48-4.12,7.75-11.45,13.74-28.77,21.08-45.86,26.32-2.15.66-4.41,1.36-5.92,3-.43,11.06,33.58,23.34,42.36,26.25a97.47,97.47,0,0,0,40.91,4.76c34.22-3.6,65.82-27.22,84.25-55.7,49.27-76.13,74.75-168.07,84.05-238.38C2836.05,1569.91,2766.85,1581.52,2739.17,1589.58Z"/><path class="cls-29" d="M2881.88,1623c36.56-276.13-176.24-488.45-176.24-488.45L2579,1282.11c96.12,119.82,141.81,229.6,162.68,315.83C2769.4,1589.88,2836.05,1577.15,2881.88,1623Z"/><path class="cls-30" d="M2738.7,1596.59a7.84,7.84,0,0,1-7.61-6c-25.73-106.3-80-211.53-161.18-312.77a7.84,7.84,0,1,1,12.23-9.82c82.67,103.06,137.91,210.35,164.19,318.9a7.84,7.84,0,0,1-5.77,9.46A7.94,7.94,0,0,1,2738.7,1596.59Z"/><path class="cls-31" d="M1024,3233.55a15.8,15.8,0,0,0-.41-4.08c-20.36-80.73-121.43-131-121.43-131l-40,3.14c-23,71.15-20.07,114.79-16.37,134.22.1.55.27,1.07.41,1.59C879.22,3240.37,947.21,3242.29,1024,3233.55Z"/><path class="cls-32" d="M846.18,3237.41c1.78,6.49,6.57,11.55,12.71,12.84,47,9.88,121.68,1.93,153-2.17,6.92-.91,12-7.31,12.09-14.53C947.21,3242.29,879.22,3240.37,846.18,3237.41Z"/><path class="cls-33" d="M846,3042l17,81.65c1.25,6,5.84,10.46,11.41,11a113.41,113.41,0,0,0,26.28-.42c8.75-1.29,14.84-10.18,13.29-19.72L902.18,3042Z"/><path class="cls-34" d="M1197.46,3236.38c-44.23-1.24-67.1-6.45-78.93-11.28,0,4.4,0,8.87.14,13.51.15,4.95,3.82,8.91,8.33,8.88l242.85-1.57c7.75-.05,12.28-9,8.92-16.14C1346.93,3232.41,1265.83,3238.29,1197.46,3236.38Z"/><path class="cls-35" d="M1378.77,3229.78a10.67,10.67,0,0,0-1-1.83c-21.45-30-76.07-89.64-184-115.53l-51.78-1.63s-23.06,40.08-23.49,114.31c11.83,4.83,34.7,10,78.93,11.28C1265.83,3238.29,1346.93,3232.41,1378.77,3229.78Z"/><path class="cls-36" d="M1130.11,3034.72c.82,3.82,11.6,61.92,15.77,84.45,1,5.35,5.16,9.28,10.12,9.55,8.87.5,23.17.56,35.47-2.78,6.63-1.8,11.09-8.56,10.62-16.07l-5.8-91.9Z"/><path class="cls-37" d="M1090.88,1962s71.23,489.46,122.63,1071.91c1,10.85-7.69,20.29-18.34,22.53-15.7,3.31-38.79,7.23-57.9,6.7a21.45,21.45,0,0,1-20.44-17.91c-17.51-102.7-142.47-653.85-175.27-775.15,0,0-37.67,515.26-25.63,782.59a12.66,12.66,0,0,1-11.17,13.17,212.68,212.68,0,0,1-46.48-.13,17,17,0,0,1-15.11-14.39c-12.47-86.91-84.27-604.25-81.22-976.93.18-21,24.66-193.68,24.66-193.68Z"/><path class="cls-38" d="M775.91,1990.19a20.14,20.14,0,0,1-13.23-17c-9.47-91.9-55.34-661.7,234.21-896.09,0,0,16.6-43.45,153.09,63.34s63.41,218.73,30.73,373.12c-39.54,186.83-108.91,339.54-78.22,454.51a15.93,15.93,0,0,1-9.76,19.1C986.71,2026.28,881.1,2027.57,775.91,1990.19Z"/><path class="cls-39" d="M1109.83,906.4c-.09,8.11-115.71,172.33-115.71,172.33s20.76,40.87,119.83,74.06L1199.47,977Z"/><path class="cls-40" d="M1200.86,812.3s41.14,94.5,43.9,144.11,13.46,81.78-43.9,91.77-105.66-18.58-131.84-68c0,0-41-76.13-31.81-107.31S1200.86,812.3,1200.86,812.3Z"/><path class="cls-41" d="M1088.62,944.67l3.26-1.44a7.88,7.88,0,0,0,3.85-10.82c-8.09-15.62-23.85-51.43-3.49-59.79,26.25-10.76,130.23-32,152.66-68.86,21.56-35.46,2.46-81.23-26.25-94.25a4,4,0,0,0-5.17,1.69l-2.39,4.53a3.9,3.9,0,0,1-7.19-.74h0a3.88,3.88,0,0,0-7-1c-6.9,11-25.51,28.94-75.3,38.12-70.75,13.06-117.53,41.7-118.7,90.59a3.9,3.9,0,0,1-6,3.21c-5.22-3.18-13.58-4.67-24.76,4.72-19.43,16.34-11.48,58.72,31.12,93.59a3.87,3.87,0,0,1-.18,6.24c-7.73,5-19.24,17,10.59,32.93,30.85,16.5,53.89,15.14,62.77,13.68a3.89,3.89,0,0,0,3.14-4.69l-9.47-43a3.9,3.9,0,0,1,3.81-4.73Z"/><path class="cls-42" d="M1090.4,953.73s-15.69-60.36-42.76-43.44,14,67.64,35.81,69.9Z"/><path class="cls-38" d="M1193.89,1190l8,214.09a589.35,589.35,0,0,0,64.72,18.38c12.84-41.34,41.11-92.07,64.26-129.79C1245.79,1262.64,1193.89,1190,1193.89,1190Z"/><path class="cls-43" d="M1618.54,1186.39c-116.68,126-211.11,133.39-287.7,106.32-23.15,37.72-51.42,88.45-64.26,129.79,311.58,68.69,385-217.75,385-217.75Z"/><path class="cls-44" d="M1642.2,1173s13.44-14.43,38.32-9.9,47,13.18,62.51,0,21,4.51,21,4.51l-46.41,35.28Z"/><path class="cls-45" d="M1614.44,1197.68s9.21-38.51,37-33.23,90.75,39.54,107,33.23,37-21.42,47.65-16.08l-18.76,23.33s48.24-27.83,56.54-10.73l-80.26,45.17S1646.14,1227.61,1614.44,1197.68Z"/><path class="cls-46" d="M1064.36,1470.23s219.36,183.71,456.23,103.55a56.42,56.42,0,0,1,44.47,3.35l68.1,36a60.8,60.8,0,0,0,80.57-22.56c9.46-15.82,17.53-33.9,19.14-51.22l-133.25-53.94,9.82-16.34s-65.06-5.51-82.08,41.12c0,0-123.92,51.54-332.9-178.32C1194.46,1331.84,1099.63,1412.47,1064.36,1470.23Z"/><path class="cls-38" d="M1052.56,1468.33a3.7,3.7,0,0,1-2.1-.64c-92.36-62.41-135.81-163.13-136.24-164.14a3.75,3.75,0,0,1,6.91-2.94c.42,1,43.06,99.73,133.53,160.86a3.75,3.75,0,0,1-2.1,6.86Z"/><path class="cls-38" d="M1190.13,1328.72A3.77,3.77,0,0,1,1187,1327c-.28-.43-28.49-44.36-82.24-140.59-16.52-29.59-38.24-48.33-64.55-55.7-43.57-12.17-85.56,11.19-86,11.42a3.75,3.75,0,1,1-3.71-6.52c1.81-1,45-25.2,91.64-12.14,28.34,7.91,51.61,27.85,69.16,59.27,53.61,96,81.72,139.76,82,140.2a3.74,3.74,0,0,1-1.13,5.18A3.69,3.69,0,0,1,1190.13,1328.72Z"/></g></svg>